<svg xmlns="http://www.w3.org/2000/svg" x="0px" y="0px" viewBox="0 0 1921 668.6">
  <defs/>
  <path fill="#004991" d="M0 0h1920v668.6H0V0z"/>
  <path fill="#FFFFFF" d="M1753.2 216.3v5.8h5.9v-5.8h-5.9zm0 18.5h5.9V229h-5.9v5.8zm0 12.7h5.9v-5.8h-5.9v5.8zm0 12.6h5.9v-5.8h-5.9v5.8zm0 12.7h5.9V267h-5.9v5.8zm0 12.7h5.9v-5.8h-5.9v5.8zm0 12.6h5.9v-5.8h-5.9v5.8zm0 12.7h5.9V305h-5.9v5.8zm0 12.7h5.9v-5.8h-5.9v5.8zm0 12.6h5.9v-5.8h-5.9v5.8zm0 12.7h5.9V343h-5.9v5.8zm0 12.7h5.9v-5.8h-5.9v5.8zm0 12.7h5.9v-5.8h-5.9v5.8zm0 12.6h5.9V381h-5.9v5.8zm0 12.7h5.9v-5.8h-5.9v5.8zm0 12.7h5.9v-5.8h-5.9v5.8zm0 12.6h5.9V419h-5.9v5.8zm0 12.7h5.9v-5.8h-5.9v5.8zm0 12.7h5.9v-5.8h-5.9v5.8zm0 12.7h5.9V457h-5.9v5.9zm0 12.6h5.9v-5.8h-5.9v5.8zm0 12.7h5.9v-5.8h-5.9v5.8zm0 12.7h5.9V495h-5.9v5.9zm0 12.6h5.9v-5.8h-5.9v5.8zm0 12.7h5.9v-5.8h-5.9v5.8zm0 12.7h5.9V533h-5.9v5.9zm0 12.6h5.9v-5.8h-5.9v5.8zm0 12.7h5.9v-5.8h-5.9v5.8zm0 12.7h5.9V571h-5.9v5.9zm0 12.7h5.9v-5.8h-5.9v5.8zm0 12.6h5.9v-5.8h-5.9v5.8zm0 12.7h5.9V609h-5.9v5.9zm0 12.7h5.9v-5.8h-5.9v5.8zm0 12.6h5.9v-5.8h-5.9v5.8zm0 12.7h5.9v-5.8h-5.9v5.8zm0 12.7h5.9v-5.8h-5.9v5.8zm0 12.6h5.9v-5.8h-5.9v5.8zm0 12.7h5.9v-5.8h-5.9v5.8zm0 12.7h5.9v-5.8h-5.9v5.8zm0 12.7h5.9v-5.8h-5.9v5.8zm0 12.6h5.9v-5.8h-5.9v5.8zm0 12.7h5.9v-5.8h-5.9v5.8zm0 12.7h5.9v-5.8h-5.9v5.8zm-12.6-532.2h5.9v-5.8h-5.9v5.8zm0 12.7h5.9V229h-5.9v5.8zm0 12.7h5.9v-5.8h-5.9v5.8zm0 12.6h5.9v-5.8h-5.9v5.8zm0 12.7h5.9V267h-5.9v5.8zm0 12.7h5.9v-5.8h-5.9v5.8zm0 12.6h5.9v-5.8h-5.9v5.8zm0 12.7h5.9V305h-5.9v5.8zm0 12.7h5.9v-5.8h-5.9v5.8zm0 12.6h5.9v-5.8h-5.9v5.8zm0 12.7h5.9V343h-5.9v5.8zm0 12.7h5.9v-5.8h-5.9v5.8zm0 12.7h5.9v-5.8h-5.9v5.8zm0 12.6h5.9V381h-5.9v5.8zm0 12.7h5.9v-5.8h-5.9v5.8zm0 12.7h5.9v-5.8h-5.9v5.8zm0 12.6h5.9V419h-5.9v5.8zm0 12.7h5.9v-5.8h-5.9v5.8zm0 12.7h5.9v-5.8h-5.9v5.8zm0 12.7h5.9V457h-5.9v5.9zm0 12.6h5.9v-5.8h-5.9v5.8zm0 12.7h5.9v-5.8h-5.9v5.8zm0 12.7h5.9V495h-5.9v5.9zm0 12.6h5.9v-5.8h-5.9v5.8zm0 12.7h5.9v-5.8h-5.9v5.8zm0 12.7h5.9V533h-5.9v5.9zm0 12.6h5.9v-5.8h-5.9v5.8zm0 12.7h5.9v-5.8h-5.9v5.8zm0 12.7h5.9V571h-5.9v5.9zm0 12.7h5.9v-5.8h-5.9v5.8zm0 12.6h5.9v-5.8h-5.9v5.8zm0 12.7h5.9V609h-5.9v5.9zm0 12.7h5.9v-5.8h-5.9v5.8zm0 12.6h5.9v-5.8h-5.9v5.8zm0 12.7h5.9v-5.8h-5.9v5.8zm0 12.7h5.9v-5.8h-5.9v5.8zm0 12.6h5.9v-5.8h-5.9v5.8zm0 12.7h5.9v-5.8h-5.9v5.8zm0 12.7h5.9v-5.8h-5.9v5.8zm0 12.7h5.9v-5.8h-5.9v5.8zm0 12.6h5.9v-5.8h-5.9v5.8zm0 12.7h5.9v-5.8h-5.9v5.8zm0 12.7h5.9v-5.8h-5.9v5.8zm-12.7-532.2h5.9v-5.8h-5.9v5.8zm0 12.7h5.9V229h-5.9v5.8zm0 12.7h5.9v-5.8h-5.9v5.8zm0 12.6h5.9v-5.8h-5.9v5.8zm0 12.7h5.9V267h-5.9v5.8zm0 12.7h5.9v-5.8h-5.9v5.8zm0 12.6h5.9v-5.8h-5.9v5.8zm0 12.7h5.9V305h-5.9v5.8zm0 12.7h5.9v-5.8h-5.9v5.8zm0 12.6h5.9v-5.8h-5.9v5.8zm0 12.7h5.9V343h-5.9v5.8zm0 12.7h5.9v-5.8h-5.9v5.8zm0 12.7h5.9v-5.8h-5.9v5.8zm0 12.6h5.9V381h-5.9v5.8zm0 12.7h5.9v-5.8h-5.9v5.8zm0 12.7h5.9v-5.8h-5.9v5.8zm0 12.6h5.9V419h-5.9v5.8zm0 12.7h5.9v-5.8h-5.9v5.8zm0 12.7h5.9v-5.8h-5.9v5.8zm0 12.7h5.9V457h-5.9v5.9zm0 12.6h5.9v-5.8h-5.9v5.8zm0 12.7h5.9v-5.8h-5.9v5.8zm0 12.7h5.9V495h-5.9v5.9zm0 12.6h5.9v-5.8h-5.9v5.8zm0 12.7h5.9v-5.8h-5.9v5.8zm0 12.7h5.9V533h-5.9v5.9zm0 12.6h5.9v-5.8h-5.9v5.8zm0 12.7h5.9v-5.8h-5.9v5.8zm0 12.7h5.9V571h-5.9v5.9zm0 12.7h5.9v-5.8h-5.9v5.8zm0 12.6h5.9v-5.8h-5.9v5.8zm0 12.7h5.9V609h-5.9v5.9zm0 12.7h5.9v-5.8h-5.9v5.8zm0 12.6h5.9v-5.8h-5.9v5.8zm0 12.7h5.9v-5.8h-5.9v5.8zm0 12.7h5.9v-5.8h-5.9v5.8zm0 12.6h5.9v-5.8h-5.9v5.8zm0 12.7h5.9v-5.8h-5.9v5.8zm0 12.7h5.9v-5.8h-5.9v5.8zm0 12.7h5.9v-5.8h-5.9v5.8zm0 12.6h5.9v-5.8h-5.9v5.8zm0 12.7h5.9v-5.8h-5.9v5.8zm0 12.7h5.9v-5.8h-5.9v5.8zm-12.7-532.2h5.9v-5.8h-5.9v5.8zm0 12.7h5.9V229h-5.9v5.8zm0 12.7h5.9v-5.8h-5.9v5.8zm0 12.6h5.9v-5.8h-5.9v5.8zm0 12.7h5.9V267h-5.9v5.8zm0 12.7h5.9v-5.8h-5.9v5.8zm0 12.6h5.9v-5.8h-5.9v5.8zm0 12.7h5.9V305h-5.9v5.8zm0 12.7h5.9v-5.8h-5.9v5.8zm0 12.6h5.9v-5.8h-5.9v5.8zm0 12.7h5.9V343h-5.9v5.8zm0 12.7h5.9v-5.8h-5.9v5.8zm0 12.7h5.9v-5.8h-5.9v5.8zm0 12.6h5.9V381h-5.9v5.8zm0 12.7h5.9v-5.8h-5.9v5.8zm0 12.7h5.9v-5.8h-5.9v5.8zm0 12.6h5.9V419h-5.9v5.8zm0 12.7h5.9v-5.8h-5.9v5.8zm0 12.7h5.9v-5.8h-5.9v5.8zm0 12.7h5.9V457h-5.9v5.9zm0 12.6h5.9v-5.8h-5.9v5.8zm0 12.7h5.9v-5.8h-5.9v5.8zm0 12.7h5.9V495h-5.9v5.9zm0 12.6h5.9v-5.8h-5.9v5.8zm0 12.7h5.9v-5.8h-5.9v5.8zm0 12.7h5.9V533h-5.9v5.9zm0 12.6h5.9v-5.8h-5.9v5.8zm0 12.7h5.9v-5.8h-5.9v5.8zm0 12.7h5.9V571h-5.9v5.9zm0 12.7h5.9v-5.8h-5.9v5.8zm0 12.6h5.9v-5.8h-5.9v5.8zm0 12.7h5.9V609h-5.9v5.9zm0 12.7h5.9v-5.8h-5.9v5.8zm0 12.6h5.9v-5.8h-5.9v5.8zm0 12.7h5.9v-5.8h-5.9v5.8zm0 12.7h5.9v-5.8h-5.9v5.8zm0 12.6h5.9v-5.8h-5.9v5.8zm0 12.7h5.9v-5.8h-5.9v5.8zm0 12.7h5.9v-5.8h-5.9v5.8zm0 12.7h5.9v-5.8h-5.9v5.8zm0 12.6h5.9v-5.8h-5.9v5.8zm0 12.7h5.9v-5.8h-5.9v5.8zm0 12.7h5.9v-5.8h-5.9v5.8zm-12.7-532.2h5.9v-5.8h-5.9v5.8zm0 12.7h5.9V229h-5.9v5.8zm0 12.7h5.9v-5.8h-5.9v5.8zm0 12.6h5.9v-5.8h-5.9v5.8zm0 12.7h5.9V267h-5.9v5.8zm0 12.7h5.9v-5.8h-5.9v5.8zm0 12.6h5.9v-5.8h-5.9v5.8zm0 12.7h5.9V305h-5.9v5.8zm0 12.7h5.9v-5.8h-5.9v5.8zm0 12.6h5.9v-5.8h-5.9v5.8zm0 12.7h5.9V343h-5.9v5.8zm0 12.7h5.9v-5.8h-5.9v5.8zm0 12.7h5.9v-5.8h-5.9v5.8zm0 12.6h5.9V381h-5.9v5.8zm0 12.7h5.9v-5.8h-5.9v5.8zm0 12.7h5.9v-5.8h-5.9v5.8zm0 12.6h5.9V419h-5.9v5.8zm0 12.7h5.9v-5.8h-5.9v5.8zm0 12.7h5.9v-5.8h-5.9v5.8zm0 12.7h5.9V457h-5.9v5.9zm0 12.6h5.9v-5.8h-5.9v5.8zm0 12.7h5.9v-5.8h-5.9v5.8zm0 12.7h5.9V495h-5.9v5.9zm0 12.6h5.9v-5.8h-5.9v5.8zm0 12.7h5.9v-5.8h-5.9v5.8zm0 12.7h5.9V533h-5.9v5.9zm0 12.6h5.9v-5.8h-5.9v5.8zm0 12.7h5.9v-5.8h-5.9v5.8zm0 12.7h5.9V571h-5.9v5.9zm0 12.7h5.9v-5.8h-5.9v5.8zm0 12.6h5.9v-5.8h-5.9v5.8zm0 12.7h5.9V609h-5.9v5.9zm0 12.7h5.9v-5.8h-5.9v5.8zm0 12.6h5.9v-5.8h-5.9v5.8zm0 12.7h5.9v-5.8h-5.9v5.8zm0 12.7h5.9v-5.8h-5.9v5.8zm0 12.6h5.9v-5.8h-5.9v5.8zm0 12.7h5.9v-5.8h-5.9v5.8zm0 12.7h5.9v-5.8h-5.9v5.8zm0 12.7h5.9v-5.8h-5.9v5.8zm0 12.6h5.9v-5.8h-5.9v5.8zm0 12.7h5.9v-5.8h-5.9v5.8zm0 12.7h5.9v-5.8h-5.9v5.8zm-12.7-532.2h5.9v-5.8h-5.9v5.8zm0 12.7h5.9V229h-5.9v5.8zm0 12.7h5.9v-5.8h-5.9v5.8zm0 12.6h5.9v-5.8h-5.9v5.8zm0 12.7h5.9V267h-5.9v5.8zm0 12.7h5.9v-5.8h-5.9v5.8zm0 12.6h5.9v-5.8h-5.9v5.8zm0 12.7h5.9V305h-5.9v5.8zm0 12.7h5.9v-5.8h-5.9v5.8zm0 12.6h5.9v-5.8h-5.9v5.8zm0 12.7h5.9V343h-5.9v5.8zm0 12.7h5.9v-5.8h-5.9v5.8zm0 12.7h5.9v-5.8h-5.9v5.8zm0 12.6h5.9V381h-5.9v5.8zm0 12.7h5.9v-5.8h-5.9v5.8zm0 12.7h5.9v-5.8h-5.9v5.8zm0 12.6h5.9V419h-5.9v5.8zm0 12.7h5.9v-5.8h-5.9v5.8zm0 12.7h5.9v-5.8h-5.9v5.8zm0 12.7h5.9V457h-5.9v5.9zm0 12.6h5.9v-5.8h-5.9v5.8zm0 12.7h5.9v-5.8h-5.9v5.8zm0 12.7h5.9V495h-5.9v5.9zm0 12.6h5.9v-5.8h-5.9v5.8zm0 12.7h5.9v-5.8h-5.9v5.8zm0 12.7h5.9V533h-5.9v5.9zm0 12.6h5.9v-5.8h-5.9v5.8zm0 12.7h5.9v-5.8h-5.9v5.8zm0 12.7h5.9V571h-5.9v5.9zm0 12.7h5.9v-5.8h-5.9v5.8zm0 12.6h5.9v-5.8h-5.9v5.8zm0 12.7h5.9V609h-5.9v5.9zm0 12.7h5.9v-5.8h-5.9v5.8zm0 12.6h5.9v-5.8h-5.9v5.8zm0 12.7h5.9v-5.8h-5.9v5.8zm0 12.7h5.9v-5.8h-5.9v5.8zm0 12.6h5.9v-5.8h-5.9v5.8zm0 12.7h5.9v-5.8h-5.9v5.8zm0 12.7h5.9v-5.8h-5.9v5.8zm0 12.7h5.9v-5.8h-5.9v5.8zm0 12.6h5.9v-5.8h-5.9v5.8zm0 12.7h5.9v-5.8h-5.9v5.8zm0 12.7h5.9v-5.8h-5.9v5.8zm-12.7-532.2h5.9v-5.8h-5.9v5.8zm0 12.7h5.9V229h-5.9v5.8zm0 12.7h5.9v-5.8h-5.9v5.8zm0 12.6h5.9v-5.8h-5.9v5.8zm0 12.7h5.9V267h-5.9v5.8zm0 12.7h5.9v-5.8h-5.9v5.8zm0 12.6h5.9v-5.8h-5.9v5.8zm0 12.7h5.9V305h-5.9v5.8zm0 12.7h5.9v-5.8h-5.9v5.8zm0 12.6h5.9v-5.8h-5.9v5.8zm0 12.7h5.9V343h-5.9v5.8zm0 12.7h5.9v-5.8h-5.9v5.8zm0 12.7h5.9v-5.8h-5.9v5.8zm0 12.6h5.9V381h-5.9v5.8zm0 12.7h5.9v-5.8h-5.9v5.8zm0 12.7h5.9v-5.8h-5.9v5.8zm0 12.6h5.9V419h-5.9v5.8zm0 12.7h5.9v-5.8h-5.9v5.8zm0 12.7h5.9v-5.8h-5.9v5.8zm0 12.7h5.9V457h-5.9v5.9zm0 12.6h5.9v-5.8h-5.9v5.8zm0 12.7h5.9v-5.8h-5.9v5.8zm0 12.7h5.9V495h-5.9v5.9zm0 12.6h5.9v-5.8h-5.9v5.8zm0 12.7h5.9v-5.8h-5.9v5.8zm0 12.7h5.9V533h-5.9v5.9zm0 12.6h5.9v-5.8h-5.9v5.8zm0 12.7h5.9v-5.8h-5.9v5.8zm0 12.7h5.9V571h-5.9v5.9zm0 12.7h5.9v-5.8h-5.9v5.8zm0 12.6h5.9v-5.8h-5.9v5.8zm0 12.7h5.9V609h-5.9v5.9zm0 12.7h5.9v-5.8h-5.9v5.8zm0 12.6h5.9v-5.8h-5.9v5.8zm0 12.7h5.9v-5.8h-5.9v5.8zm0 12.7h5.9v-5.8h-5.9v5.8zm0 12.6h5.9v-5.8h-5.9v5.8zm0 12.7h5.9v-5.8h-5.9v5.8zm0 12.7h5.9v-5.8h-5.9v5.8zm0 12.7h5.9v-5.8h-5.9v5.8zm0 12.6h5.9v-5.8h-5.9v5.8zm0 12.7h5.9v-5.8h-5.9v5.8zm0 12.7h5.9v-5.8h-5.9v5.8zm-12.6-532.2h5.9v-5.8h-5.9v5.8zm0 12.7h5.9V229h-5.9v5.8zm0 12.7h5.9v-5.8h-5.9v5.8zm0 12.6h5.9v-5.8h-5.9v5.8zm0 12.7h5.9V267h-5.9v5.8zm0 12.7h5.9v-5.8h-5.9v5.8zm0 12.6h5.9v-5.8h-5.9v5.8zm0 12.7h5.9V305h-5.9v5.8zm0 12.7h5.9v-5.8h-5.9v5.8zm0 12.6h5.9v-5.8h-5.9v5.8zm0 12.7h5.9V343h-5.9v5.8zm0 12.7h5.9v-5.8h-5.9v5.8zm0 12.7h5.9v-5.8h-5.9v5.8zm0 12.6h5.9V381h-5.9v5.8zm0 12.7h5.9v-5.8h-5.9v5.8zm0 12.7h5.9v-5.8h-5.9v5.8zm0 12.6h5.9V419h-5.9v5.8zm0 12.7h5.9v-5.8h-5.9v5.8zm0 12.7h5.9v-5.8h-5.9v5.8zm0 12.7h5.9V457h-5.9v5.9zm0 12.6h5.9v-5.8h-5.9v5.8zm0 12.7h5.9v-5.8h-5.9v5.8zm0 12.7h5.9V495h-5.9v5.9zm0 12.6h5.9v-5.8h-5.9v5.8zm0 12.7h5.9v-5.8h-5.9v5.8zm0 12.7h5.9V533h-5.9v5.9zm0 12.6h5.9v-5.8h-5.9v5.8zm0 12.7h5.9v-5.8h-5.9v5.8zm0 12.7h5.9V571h-5.9v5.9zm0 12.7h5.9v-5.8h-5.9v5.8zm0 12.6h5.9v-5.8h-5.9v5.8zm0 12.7h5.9V609h-5.9v5.9zm0 12.7h5.9v-5.8h-5.9v5.8zm0 12.6h5.9v-5.8h-5.9v5.8zm0 12.7h5.9v-5.8h-5.9v5.8zm0 12.7h5.9v-5.8h-5.9v5.8zm0 12.6h5.9v-5.8h-5.9v5.8zm0 12.7h5.9v-5.8h-5.9v5.8zm0 12.7h5.9v-5.8h-5.9v5.8zm0 12.7h5.9v-5.8h-5.9v5.8zm0 12.6h5.9v-5.8h-5.9v5.8zm0 12.7h5.9v-5.8h-5.9v5.8zm0 12.7h5.9v-5.8h-5.9v5.8zm-12.7-532.2h5.9v-5.8h-5.9v5.8zm0 12.7h5.9V229h-5.9v5.8zm0 12.7h5.9v-5.8h-5.9v5.8zm0 12.6h5.9v-5.8h-5.9v5.8zm0 12.7h5.9V267h-5.9v5.8zm0 12.7h5.9v-5.8h-5.9v5.8zm0 12.6h5.9v-5.8h-5.9v5.8zm0 12.7h5.9V305h-5.9v5.8zm0 12.7h5.9v-5.8h-5.9v5.8zm0 12.6h5.9v-5.8h-5.9v5.8zm0 12.7h5.9V343h-5.9v5.8zm0 12.7h5.9v-5.8h-5.9v5.8zm0 12.7h5.9v-5.8h-5.9v5.8zm0 12.6h5.9V381h-5.9v5.8zm0 12.7h5.9v-5.8h-5.9v5.8zm0 12.7h5.9v-5.8h-5.9v5.8zm0 12.6h5.9V419h-5.9v5.8zm0 12.7h5.9v-5.8h-5.9v5.8zm0 12.7h5.9v-5.8h-5.9v5.8zm0 12.7h5.9V457h-5.9v5.9zm0 12.6h5.9v-5.8h-5.9v5.8zm0 12.7h5.9v-5.8h-5.9v5.8zm0 12.7h5.9V495h-5.9v5.9zm0 12.6h5.9v-5.8h-5.9v5.8zm0 12.7h5.9v-5.8h-5.9v5.8zm0 12.7h5.9V533h-5.9v5.9zm0 12.6h5.9v-5.8h-5.9v5.8zm0 12.7h5.9v-5.8h-5.9v5.8zm0 12.7h5.9V571h-5.9v5.9zm0 12.7h5.9v-5.8h-5.9v5.8zm0 12.6h5.9v-5.8h-5.9v5.8zm0 12.7h5.9V609h-5.9v5.9zm0 12.7h5.9v-5.8h-5.9v5.8zm0 12.6h5.9v-5.8h-5.9v5.8zm0 12.7h5.9v-5.8h-5.9v5.8zm0 12.7h5.9v-5.8h-5.9v5.8zm0 12.6h5.9v-5.8h-5.9v5.8zm0 12.7h5.9v-5.8h-5.9v5.8zm0 12.7h5.9v-5.8h-5.9v5.8zm0 12.7h5.9v-5.8h-5.9v5.8zm0 12.6h5.9v-5.8h-5.9v5.8zm0 12.7h5.9v-5.8h-5.9v5.8zm0 12.7h5.9v-5.8h-5.9v5.8zm-12.7-532.2h5.9v-5.8h-5.9v5.8zm0 12.7h5.9V229h-5.9v5.8zm0 12.7h5.9v-5.8h-5.9v5.8zm0 12.6h5.9v-5.8h-5.9v5.8zm0 12.7h5.9V267h-5.9v5.8zm0 12.7h5.9v-5.8h-5.9v5.8zm0 12.6h5.9v-5.8h-5.9v5.8zm0 12.7h5.9V305h-5.9v5.8zm0 12.7h5.9v-5.8h-5.9v5.8zm0 12.6h5.9v-5.8h-5.9v5.8zm0 12.7h5.9V343h-5.9v5.8zm0 12.7h5.9v-5.8h-5.9v5.8zm0 12.7h5.9v-5.8h-5.9v5.8zm0 12.6h5.9V381h-5.9v5.8zm0 12.7h5.9v-5.8h-5.9v5.8zm0 12.7h5.9v-5.8h-5.9v5.8zm0 12.6h5.9V419h-5.9v5.8zm0 12.7h5.9v-5.8h-5.9v5.8zm0 12.7h5.9v-5.8h-5.9v5.8zm0 12.7h5.9V457h-5.9v5.9zm0 12.6h5.9v-5.8h-5.9v5.8zm0 12.7h5.9v-5.8h-5.9v5.8zm0 12.7h5.9V495h-5.9v5.9zm0 12.6h5.9v-5.8h-5.9v5.8zm0 12.7h5.9v-5.8h-5.9v5.8zm0 12.7h5.9V533h-5.9v5.9zm0 12.6h5.9v-5.8h-5.9v5.8zm0 12.7h5.9v-5.8h-5.9v5.8zm0 12.7h5.9V571h-5.9v5.9zm0 12.7h5.9v-5.8h-5.9v5.8zm0 12.6h5.9v-5.8h-5.9v5.8zm0 12.7h5.9V609h-5.9v5.9zm0 12.7h5.9v-5.8h-5.9v5.8zm0 12.6h5.9v-5.8h-5.9v5.8zm0 12.7h5.9v-5.8h-5.9v5.8zm0 12.7h5.9v-5.8h-5.9v5.8zm0 12.6h5.9v-5.8h-5.9v5.8zm0 12.7h5.9v-5.8h-5.9v5.8zm0 12.7h5.9v-5.8h-5.9v5.8zm0 12.7h5.9v-5.8h-5.9v5.8zm0 12.6h5.9v-5.8h-5.9v5.8zm0 12.7h5.9v-5.8h-5.9v5.8zm0 12.7h5.9v-5.8h-5.9v5.8zm-12.7-532.2h5.9v-5.8h-5.9v5.8zm0 12.7h5.9V229h-5.9v5.8zm0 12.7h5.9v-5.8h-5.9v5.8zm0 12.6h5.9v-5.8h-5.9v5.8zm0 12.7h5.9V267h-5.9v5.8zm0 12.7h5.9v-5.8h-5.9v5.8zm0 12.6h5.9v-5.8h-5.9v5.8zm0 12.7h5.9V305h-5.9v5.8zm0 12.7h5.9v-5.8h-5.9v5.8zm0 12.6h5.9v-5.8h-5.9v5.8zm0 12.7h5.9V343h-5.9v5.8zm0 12.7h5.9v-5.8h-5.9v5.8zm0 12.7h5.9v-5.8h-5.9v5.8zm0 12.6h5.9V381h-5.9v5.8zm0 12.7h5.9v-5.8h-5.9v5.8zm0 12.7h5.9v-5.8h-5.9v5.8zm0 12.6h5.9V419h-5.9v5.8zm0 12.7h5.9v-5.8h-5.9v5.8zm0 12.7h5.9v-5.8h-5.9v5.8zm0 12.7h5.9V457h-5.9v5.9zm0 12.6h5.9v-5.8h-5.9v5.8zm0 12.7h5.9v-5.8h-5.9v5.8zm0 12.7h5.9V495h-5.9v5.9zm0 12.6h5.9v-5.8h-5.9v5.8zm0 12.7h5.9v-5.8h-5.9v5.8zm0 12.7h5.9V533h-5.9v5.9zm0 12.6h5.9v-5.8h-5.9v5.8zm0 12.7h5.9v-5.8h-5.9v5.8zm0 12.7h5.9V571h-5.9v5.9zm0 12.7h5.9v-5.8h-5.9v5.8zm0 12.6h5.9v-5.8h-5.9v5.8zm0 12.7h5.9V609h-5.9v5.9zm0 12.7h5.9v-5.8h-5.9v5.8zm0 12.6h5.9v-5.8h-5.9v5.8zm0 12.7h5.9v-5.8h-5.9v5.8zm0 12.7h5.9v-5.8h-5.9v5.8zm0 12.6h5.9v-5.8h-5.9v5.8zm0 12.7h5.9v-5.8h-5.9v5.8zm0 12.7h5.9v-5.8h-5.9v5.8zm0 12.7h5.9v-5.8h-5.9v5.8zm0 12.6h5.9v-5.8h-5.9v5.8zm0 12.7h5.9v-5.8h-5.9v5.8zm0 12.7h5.9v-5.8h-5.9v5.8zm-12.7-532.2h5.9v-5.8h-5.9v5.8zm0 12.7h5.9V229h-5.9v5.8zm0 12.7h5.9v-5.8h-5.9v5.8zm0 12.6h5.9v-5.8h-5.9v5.8zm0 12.7h5.9V267h-5.9v5.8zm0 12.7h5.9v-5.8h-5.9v5.8zm0 12.6h5.9v-5.8h-5.9v5.8zm0 12.7h5.9V305h-5.9v5.8zm0 12.7h5.9v-5.8h-5.9v5.8zm0 12.6h5.9v-5.8h-5.9v5.8zm0 12.7h5.9V343h-5.9v5.8zm0 12.7h5.9v-5.8h-5.9v5.8zm0 12.7h5.9v-5.8h-5.9v5.8zm0 12.6h5.9V381h-5.9v5.8zm0 12.7h5.9v-5.8h-5.9v5.8zm0 12.7h5.9v-5.8h-5.9v5.8zm0 12.6h5.9V419h-5.9v5.8zm0 12.7h5.9v-5.8h-5.9v5.8zm0 12.7h5.9v-5.8h-5.9v5.8zm0 12.7h5.9V457h-5.9v5.9zm0 12.6h5.9v-5.8h-5.9v5.8zm0 12.7h5.9v-5.8h-5.9v5.8zm0 12.7h5.9V495h-5.9v5.9zm0 12.6h5.9v-5.8h-5.9v5.8zm0 12.7h5.9v-5.8h-5.9v5.8zm0 12.7h5.9V533h-5.9v5.9zm0 12.6h5.9v-5.8h-5.9v5.8zm0 12.7h5.9v-5.8h-5.9v5.8zm0 12.7h5.9V571h-5.9v5.9zm0 12.7h5.9v-5.8h-5.9v5.8zm0 12.6h5.9v-5.8h-5.9v5.8zm0 12.7h5.9V609h-5.9v5.9zm0 12.7h5.9v-5.8h-5.9v5.8zm0 12.6h5.9v-5.8h-5.9v5.8zm0 12.7h5.9v-5.8h-5.9v5.8zm0 12.7h5.9v-5.8h-5.9v5.8zm0 12.6h5.9v-5.8h-5.9v5.8zm0 12.7h5.9v-5.8h-5.9v5.8zm0 12.7h5.9v-5.8h-5.9v5.8zm0 12.7h5.9v-5.8h-5.9v5.8zm0 12.6h5.9v-5.8h-5.9v5.8zm0 12.7h5.9v-5.8h-5.9v5.8zm0 12.7h5.9v-5.8h-5.9v5.8zM1601 222.1h5.9v-5.8h-5.9v5.8zm0 12.7h5.9V229h-5.9v5.8zm0 12.7h5.9v-5.8h-5.9v5.8zm0 12.6h5.9v-5.8h-5.9v5.8zm0 12.7h5.9V267h-5.9v5.8zm0 12.7h5.9v-5.8h-5.9v5.8zm0 12.6h5.9v-5.8h-5.9v5.8zm0 12.7h5.9V305h-5.9v5.8zm0 12.7h5.9v-5.8h-5.9v5.8zm0 12.7h5.9v-5.8h-5.9v5.8zm0 12.6h5.9V343h-5.9v5.8zm0 12.7h5.9v-5.8h-5.9v5.8zm0 12.7h5.9v-5.8h-5.9v5.8zm0 12.6h5.9V381h-5.9v5.8zm0 12.7h5.9v-5.8h-5.9v5.8zm0 12.7h5.9v-5.8h-5.9v5.8zm0 12.6h5.9V419h-5.9v5.8zm0 12.7h5.9v-5.8h-5.9v5.8zm0 12.7h5.9v-5.8h-5.9v5.8zm0 12.7h5.9V457h-5.9v5.9zm0 12.6h5.9v-5.8h-5.9v5.8zm0 12.7h5.9v-5.8h-5.9v5.8zm0 12.7h5.9V495h-5.9v5.9zm0 12.6h5.9v-5.8h-5.9v5.8zm0 12.7h5.9v-5.8h-5.9v5.8zm0 12.7h5.9V533h-5.9v5.9zm0 12.6h5.9v-5.8h-5.9v5.8zm0 12.7h5.9v-5.8h-5.9v5.8zm0 12.7h5.9V571h-5.9v5.9zm0 12.7h5.9v-5.8h-5.9v5.8zm0 12.6h5.9v-5.8h-5.9v5.8zm0 12.7h5.9V609h-5.9v5.9zm0 12.7h5.9v-5.8h-5.9v5.8zm0 12.6h5.9v-5.8h-5.9v5.8zm0 12.7h5.9v-5.8h-5.9v5.8zm0 12.7h5.9v-5.8h-5.9v5.8zm0 12.6h5.9v-5.8h-5.9v5.8zm0 12.7h5.9v-5.8h-5.9v5.8zm0 12.7h5.9v-5.8h-5.9v5.8zm0 12.7h5.9v-5.8h-5.9v5.8zm0 12.6h5.9v-5.8h-5.9v5.8zm0 12.7h5.9v-5.8h-5.9v5.8zm0 12.7h5.9v-5.8h-5.9v5.8zm-12.6-532.2h5.9v-5.8h-5.9v5.8zm0 12.7h5.9V229h-5.9v5.8zm0 12.7h5.9v-5.8h-5.9v5.8zm0 12.6h5.9v-5.8h-5.9v5.8zm0 12.7h5.9V267h-5.9v5.8zm0 12.7h5.9v-5.8h-5.9v5.8zm0 12.6h5.9v-5.8h-5.9v5.8zm0 12.7h5.9V305h-5.9v5.8zm0 12.7h5.9v-5.8h-5.9v5.8zm0 12.7h5.9v-5.8h-5.9v5.8zm0 12.6h5.9V343h-5.9v5.8zm0 12.7h5.9v-5.8h-5.9v5.8zm0 12.7h5.9v-5.8h-5.9v5.8zm0 12.6h5.9V381h-5.9v5.8zm0 12.7h5.9v-5.8h-5.9v5.8zm0 12.7h5.9v-5.8h-5.9v5.8zm0 12.6h5.9V419h-5.9v5.8zm0 12.7h5.9v-5.8h-5.9v5.8zm0 12.7h5.9v-5.8h-5.9v5.8zm0 12.7h5.9V457h-5.9v5.9zm0 12.6h5.9v-5.8h-5.9v5.8zm0 12.7h5.9v-5.8h-5.9v5.8zm0 12.7h5.9V495h-5.9v5.9zm0 12.6h5.9v-5.8h-5.9v5.8zm0 12.7h5.9v-5.8h-5.9v5.8zm0 12.7h5.9V533h-5.9v5.9zm0 12.6h5.9v-5.8h-5.9v5.8zm0 12.7h5.9v-5.8h-5.9v5.8zm0 12.7h5.9V571h-5.9v5.9zm0 12.7h5.9v-5.8h-5.9v5.8zm0 12.6h5.9v-5.8h-5.9v5.8zm0 12.7h5.9V609h-5.9v5.9zm0 12.7h5.9v-5.8h-5.9v5.8zm0 12.6h5.9v-5.8h-5.9v5.8zm0 12.7h5.9v-5.8h-5.9v5.8zm0 12.7h5.9v-5.8h-5.9v5.8zm0 12.6h5.9v-5.8h-5.9v5.8zm0 12.7h5.9v-5.8h-5.9v5.8zm0 12.7h5.9v-5.8h-5.9v5.8zm0 12.7h5.9v-5.8h-5.9v5.8zm0 12.6h5.9v-5.8h-5.9v5.8zm0 12.7h5.9v-5.8h-5.9v5.8zm0 12.7h5.9v-5.8h-5.9v5.8zm-12.7-532.2h5.9v-5.8h-5.9v5.8zm0 12.7h5.9V229h-5.9v5.8zm0 12.7h5.9v-5.8h-5.9v5.8zm0 12.6h5.9v-5.8h-5.9v5.8zm0 12.7h5.9V267h-5.9v5.8zm0 12.7h5.9v-5.8h-5.9v5.8zm0 12.6h5.9v-5.8h-5.9v5.8zm0 12.7h5.9V305h-5.9v5.8zm0 12.7h5.9v-5.8h-5.9v5.8zm0 12.7h5.9v-5.8h-5.9v5.8zm0 12.6h5.9V343h-5.9v5.8zm0 12.7h5.9v-5.8h-5.9v5.8zm0 12.7h5.9v-5.8h-5.9v5.8zm0 12.6h5.9V381h-5.9v5.8zm0 12.7h5.9v-5.8h-5.9v5.8zm0 12.7h5.9v-5.8h-5.9v5.8zm0 12.6h5.9V419h-5.9v5.8zm0 12.7h5.9v-5.8h-5.9v5.8zm0 12.7h5.9v-5.8h-5.9v5.8zm0 12.7h5.9V457h-5.9v5.9zm0 12.6h5.9v-5.8h-5.9v5.8zm0 12.7h5.9v-5.8h-5.9v5.8zm0 12.7h5.9V495h-5.9v5.9zm0 12.6h5.9v-5.8h-5.9v5.8zm0 12.7h5.9v-5.8h-5.9v5.8zm0 12.7h5.9V533h-5.9v5.9zm0 12.6h5.9v-5.8h-5.9v5.8zm0 12.7h5.9v-5.8h-5.9v5.8zm0 12.7h5.9V571h-5.9v5.9zm0 12.7h5.9v-5.8h-5.9v5.8zm0 12.6h5.9v-5.8h-5.9v5.8zm0 12.7h5.9V609h-5.9v5.9zm0 12.7h5.9v-5.8h-5.9v5.8zm0 12.6h5.9v-5.8h-5.9v5.8zm0 12.7h5.9v-5.8h-5.9v5.8zm0 12.7h5.9v-5.8h-5.9v5.8zm0 12.6h5.9v-5.8h-5.9v5.8zm0 12.7h5.9v-5.8h-5.9v5.8zm0 12.7h5.9v-5.8h-5.9v5.8zm0 12.7h5.9v-5.8h-5.9v5.8zm0 12.6h5.9v-5.8h-5.9v5.8zm0 12.7h5.9v-5.8h-5.9v5.8zm0 12.7h5.9v-5.8h-5.9v5.8zM1563 222.1h5.9v-5.8h-5.9v5.8zm0 12.7h5.9V229h-5.9v5.8zm0 12.7h5.9v-5.8h-5.9v5.8zm0 12.6h5.9v-5.8h-5.9v5.8zm0 12.7h5.9V267h-5.9v5.8zm0 12.7h5.9v-5.8h-5.9v5.8zm0 12.6h5.9v-5.8h-5.9v5.8zm0 12.7h5.9V305h-5.9v5.8zm0 12.7h5.9v-5.8h-5.9v5.8zm0 12.7h5.9v-5.8h-5.9v5.8zm0 12.6h5.9V343h-5.9v5.8zm0 12.7h5.9v-5.8h-5.9v5.8zm0 12.7h5.9v-5.8h-5.9v5.8zm0 12.6h5.9V381h-5.9v5.8zm0 12.7h5.9v-5.8h-5.9v5.8zm0 12.7h5.9v-5.8h-5.9v5.8zm0 12.6h5.9V419h-5.9v5.8zm0 12.7h5.9v-5.8h-5.9v5.8zm0 12.7h5.9v-5.8h-5.9v5.8zm0 12.7h5.9V457h-5.9v5.9zm0 12.6h5.9v-5.8h-5.9v5.8zm0 12.7h5.9v-5.8h-5.9v5.8zm0 12.7h5.9V495h-5.9v5.9zm0 12.6h5.9v-5.8h-5.9v5.8zm0 12.7h5.9v-5.8h-5.9v5.8zm0 12.7h5.9V533h-5.9v5.9zm0 12.6h5.9v-5.8h-5.9v5.8zm0 12.7h5.9v-5.8h-5.9v5.8zm0 12.7h5.9V571h-5.9v5.9zm0 12.7h5.9v-5.8h-5.9v5.8zm0 12.6h5.9v-5.8h-5.9v5.8zm0 12.7h5.9V609h-5.9v5.9zm0 12.7h5.9v-5.8h-5.9v5.8zm0 12.6h5.9v-5.8h-5.9v5.8zm0 12.7h5.9v-5.8h-5.9v5.8zm0 12.7h5.9v-5.8h-5.9v5.8zm0 12.6h5.9v-5.8h-5.9v5.8zm0 12.7h5.9v-5.8h-5.9v5.8zm0 12.7h5.9v-5.8h-5.9v5.8zm0 12.7h5.9v-5.8h-5.9v5.8zm0 12.6h5.9v-5.8h-5.9v5.8zm0 12.7h5.9v-5.8h-5.9v5.8zm0 12.7h5.9v-5.8h-5.9v5.8zm-12.7-532.2h5.9v-5.8h-5.9v5.8zm0 12.7h5.9V229h-5.9v5.8zm0 12.7h5.9v-5.8h-5.9v5.8zm0 12.6h5.9v-5.8h-5.9v5.8zm0 12.7h5.9V267h-5.9v5.8zm0 12.7h5.9v-5.8h-5.9v5.8zm0 12.6h5.9v-5.8h-5.9v5.8zm0 12.7h5.9V305h-5.9v5.8zm0 12.7h5.9v-5.8h-5.9v5.8zm0 12.6h5.9v-5.8h-5.9v5.8zm0 12.7h5.9V343h-5.9v5.8zm0 12.7h5.9v-5.8h-5.9v5.8zm0 12.7h5.9v-5.8h-5.9v5.8zm0 12.6h5.9V381h-5.9v5.8zm0 12.7h5.9v-5.8h-5.9v5.8zm0 12.7h5.9v-5.8h-5.9v5.8zm0 12.6h5.9V419h-5.9v5.8zm0 12.7h5.9v-5.8h-5.9v5.8zm0 12.7h5.9v-5.8h-5.9v5.8zm0 12.7h5.9V457h-5.9v5.9zm0 12.6h5.9v-5.8h-5.9v5.8zm0 12.7h5.9v-5.8h-5.9v5.8zm0 12.7h5.9V495h-5.9v5.9zm0 12.6h5.9v-5.8h-5.9v5.8zm0 12.7h5.9v-5.8h-5.9v5.8zm0 12.7h5.9V533h-5.9v5.9zm0 12.6h5.9v-5.8h-5.9v5.8zm0 12.7h5.9v-5.8h-5.9v5.8zm0 12.7h5.9V571h-5.9v5.9zm0 12.7h5.9v-5.8h-5.9v5.8zm0 12.6h5.9v-5.8h-5.9v5.8zm0 12.7h5.9V609h-5.9v5.9zm0 12.7h5.9v-5.8h-5.9v5.8zm0 12.6h5.9v-5.8h-5.9v5.8zm0 12.7h5.9v-5.8h-5.9v5.8zm0 12.7h5.9v-5.8h-5.9v5.8zm0 12.6h5.9v-5.8h-5.9v5.8zm0 12.7h5.9v-5.8h-5.9v5.8zm0 12.7h5.9v-5.8h-5.9v5.8zm0 12.7h5.9v-5.8h-5.9v5.8zm0 12.6h5.9v-5.8h-5.9v5.8zm0 12.7h5.9v-5.8h-5.9v5.8zm0 12.7h5.9v-5.8h-5.9v5.8zm-12.7-532.2h5.9v-5.8h-5.9v5.8zm0 12.7h5.9V229h-5.9v5.8zm0 12.7h5.9v-5.8h-5.9v5.8zm0 12.6h5.9v-5.8h-5.9v5.8zm0 12.7h5.9V267h-5.9v5.8zm0 12.7h5.9v-5.8h-5.9v5.8zm0 12.6h5.9v-5.8h-5.9v5.8zm0 12.7h5.9V305h-5.9v5.8zm0 12.7h5.9v-5.8h-5.9v5.8zm0 12.6h5.9v-5.8h-5.9v5.8zm0 12.7h5.9V343h-5.9v5.8zm0 12.7h5.9v-5.8h-5.9v5.8zm0 12.7h5.9v-5.8h-5.9v5.8zm0 12.6h5.9V381h-5.9v5.8zm0 12.7h5.9v-5.8h-5.9v5.8zm0 12.7h5.9v-5.8h-5.9v5.8zm0 12.6h5.9V419h-5.9v5.8zm0 12.7h5.9v-5.8h-5.9v5.8zm0 12.7h5.9v-5.8h-5.9v5.8zm0 12.7h5.9V457h-5.9v5.9zm0 12.6h5.9v-5.8h-5.9v5.8zm0 12.7h5.9v-5.8h-5.9v5.8zm0 12.7h5.9V495h-5.9v5.9zm0 12.6h5.9v-5.8h-5.9v5.8zm0 12.7h5.9v-5.8h-5.9v5.8zm0 12.7h5.9V533h-5.9v5.9zm0 12.6h5.9v-5.8h-5.9v5.8zm0 12.7h5.9v-5.8h-5.9v5.8zm0 12.7h5.9V571h-5.9v5.9zm0 12.7h5.9v-5.8h-5.9v5.8zm0 12.6h5.9v-5.8h-5.9v5.8zm0 12.7h5.9V609h-5.9v5.9zm0 12.7h5.9v-5.8h-5.9v5.8zm0 12.6h5.9v-5.8h-5.9v5.8zm0 12.7h5.9v-5.8h-5.9v5.8zm0 12.7h5.9v-5.8h-5.9v5.8zm0 12.6h5.9v-5.8h-5.9v5.8zm0 12.7h5.9v-5.8h-5.9v5.8zm0 12.7h5.9v-5.8h-5.9v5.8zm0 12.7h5.9v-5.8h-5.9v5.8zm0 12.6h5.9v-5.8h-5.9v5.8zm0 12.7h5.9v-5.8h-5.9v5.8zm0 12.7h5.9v-5.8h-5.9v5.8zm-12.7-532.2h5.9v-5.8h-5.9v5.8zm0 12.7h5.9V229h-5.9v5.8zm0 12.7h5.9v-5.8h-5.9v5.8zm0 12.6h5.9v-5.8h-5.9v5.8zm0 12.7h5.9V267h-5.9v5.8zm0 12.7h5.9v-5.8h-5.9v5.8zm0 12.6h5.9v-5.8h-5.9v5.8zm0 12.7h5.9V305h-5.9v5.8zm0 12.7h5.9v-5.8h-5.9v5.8zm0 12.6h5.9v-5.8h-5.9v5.8zm0 12.7h5.9V343h-5.9v5.8zm0 12.7h5.9v-5.8h-5.9v5.8zm0 12.7h5.9v-5.8h-5.9v5.8zm0 12.6h5.9V381h-5.9v5.8zm0 12.7h5.9v-5.8h-5.9v5.8zm0 12.7h5.9v-5.8h-5.9v5.8zm0 12.6h5.9V419h-5.9v5.8zm0 12.7h5.9v-5.8h-5.9v5.8zm0 12.7h5.9v-5.8h-5.9v5.8zm0 12.7h5.9V457h-5.9v5.9zm0 12.6h5.9v-5.8h-5.9v5.8zm0 12.7h5.9v-5.8h-5.9v5.8zm0 12.7h5.9V495h-5.9v5.9zm0 12.6h5.9v-5.8h-5.9v5.8zm0 12.7h5.9v-5.8h-5.9v5.8zm0 12.7h5.9V533h-5.9v5.9zm0 12.6h5.9v-5.8h-5.9v5.8zm0 12.7h5.9v-5.8h-5.9v5.8zm0 12.7h5.9V571h-5.9v5.9zm0 12.7h5.9v-5.8h-5.9v5.8zm0 12.6h5.9v-5.8h-5.9v5.8zm0 12.7h5.9V609h-5.9v5.9zm0 12.7h5.9v-5.8h-5.9v5.8zm0 12.6h5.9v-5.8h-5.9v5.8zm0 12.7h5.9v-5.8h-5.9v5.8zm0 12.7h5.9v-5.8h-5.9v5.8zm0 12.6h5.9v-5.8h-5.9v5.8zm0 12.7h5.9v-5.8h-5.9v5.8zm0 12.7h5.9v-5.8h-5.9v5.8zm0 12.7h5.9v-5.8h-5.9v5.8zm0 12.6h5.9v-5.8h-5.9v5.8zm0 12.7h5.9v-5.8h-5.9v5.8zm0 12.7h5.9v-5.8h-5.9v5.8zm-12.7-532.2h5.9v-5.8h-5.9v5.8zm0 12.7h5.9V229h-5.9v5.8zm0 12.7h5.9v-5.8h-5.9v5.8zm0 12.6h5.9v-5.8h-5.9v5.8zm0 12.7h5.9V267h-5.9v5.8zm0 12.7h5.9v-5.8h-5.9v5.8zm0 12.6h5.9v-5.8h-5.9v5.8zm0 12.7h5.9V305h-5.9v5.8zm0 12.7h5.9v-5.8h-5.9v5.8zm0 12.6h5.9v-5.8h-5.9v5.8zm0 12.7h5.9V343h-5.9v5.8zm0 12.7h5.9v-5.8h-5.9v5.8zm0 12.7h5.9v-5.8h-5.9v5.8zm0 12.6h5.9V381h-5.9v5.8zm0 12.7h5.9v-5.8h-5.9v5.8zm0 12.7h5.9v-5.8h-5.9v5.8zm0 12.6h5.9V419h-5.9v5.8zm0 12.7h5.9v-5.8h-5.9v5.8zm0 12.7h5.9v-5.8h-5.9v5.8zm0 12.7h5.9V457h-5.9v5.9zm0 12.6h5.9v-5.8h-5.9v5.8zm0 12.7h5.9v-5.8h-5.9v5.8zm0 12.7h5.9V495h-5.9v5.9zm0 12.6h5.9v-5.8h-5.9v5.8zm0 12.7h5.9v-5.8h-5.9v5.8zm0 12.7h5.9V533h-5.9v5.9zm0 12.6h5.9v-5.8h-5.9v5.8zm0 12.7h5.9v-5.8h-5.9v5.8zm0 12.7h5.9V571h-5.9v5.9zm0 12.7h5.9v-5.8h-5.9v5.8zm0 12.6h5.9v-5.8h-5.9v5.8zm0 12.7h5.9V609h-5.9v5.9zm0 12.7h5.9v-5.8h-5.9v5.8zm0 12.6h5.9v-5.8h-5.9v5.8zm0 12.7h5.9v-5.8h-5.9v5.8zm0 12.7h5.9v-5.8h-5.9v5.8zm0 12.6h5.9v-5.8h-5.9v5.8zm0 12.7h5.9v-5.8h-5.9v5.8zm0 12.7h5.9v-5.8h-5.9v5.8zm0 12.7h5.9v-5.8h-5.9v5.8zm0 12.6h5.9v-5.8h-5.9v5.8zm0 12.7h5.9v-5.8h-5.9v5.8zm0 12.7h5.9v-5.8h-5.9v5.8zm-12.6-532.2h5.9v-5.8h-5.9v5.8zm0 12.7h5.9V229h-5.9v5.8zm0 12.7h5.9v-5.8h-5.9v5.8zm0 12.6h5.9v-5.8h-5.9v5.8zm0 12.7h5.9V267h-5.9v5.8zm0 12.7h5.9v-5.8h-5.9v5.8zm0 12.6h5.9v-5.8h-5.9v5.8zm0 12.7h5.9V305h-5.9v5.8zm0 12.7h5.9v-5.8h-5.9v5.8zm0 12.6h5.9v-5.8h-5.9v5.8zm0 12.7h5.9V343h-5.9v5.8zm0 12.7h5.9v-5.8h-5.9v5.8zm0 12.7h5.9v-5.8h-5.9v5.8zm0 12.6h5.9V381h-5.9v5.8zm0 12.7h5.9v-5.8h-5.9v5.8zm0 12.7h5.9v-5.8h-5.9v5.8zm0 12.6h5.9V419h-5.9v5.8zm0 12.7h5.9v-5.8h-5.9v5.8zm0 12.7h5.9v-5.8h-5.9v5.8zm0 12.7h5.9V457h-5.9v5.9zm0 12.6h5.9v-5.8h-5.9v5.8zm0 12.7h5.9v-5.8h-5.9v5.8zm0 12.7h5.9V495h-5.9v5.9zm0 12.6h5.9v-5.8h-5.9v5.8zm0 12.7h5.9v-5.8h-5.9v5.8zm0 12.7h5.9V533h-5.9v5.9zm0 12.6h5.9v-5.8h-5.9v5.8zm0 12.7h5.9v-5.8h-5.9v5.8zm0 12.7h5.9V571h-5.9v5.9zm0 12.7h5.9v-5.8h-5.9v5.8zm0 12.6h5.9v-5.8h-5.9v5.8zm0 12.7h5.9V609h-5.9v5.9zm0 12.7h5.9v-5.8h-5.9v5.8zm0 12.6h5.9v-5.8h-5.9v5.8zm0 12.7h5.9v-5.8h-5.9v5.8zm0 12.7h5.9v-5.8h-5.9v5.8zm0 12.6h5.9v-5.8h-5.9v5.8zm0 12.7h5.9v-5.8h-5.9v5.8zm0 12.7h5.9v-5.8h-5.9v5.8zm0 12.7h5.9v-5.8h-5.9v5.8zm0 12.6h5.9v-5.8h-5.9v5.8zm0 12.7h5.9v-5.8h-5.9v5.8zm0 12.7h5.9v-5.8h-5.9v5.8zm-12.7-532.2h5.9v-5.8h-5.9v5.8zm0 12.7h5.9V229h-5.9v5.8zm0 12.7h5.9v-5.8h-5.9v5.8zm0 12.6h5.9v-5.8h-5.9v5.8zm0 12.7h5.9V267h-5.9v5.8zm0 12.7h5.9v-5.8h-5.9v5.8zm0 12.6h5.9v-5.8h-5.9v5.8zm0 12.7h5.9V305h-5.9v5.8zm0 12.7h5.9v-5.8h-5.9v5.8zm0 12.6h5.9v-5.8h-5.9v5.8zm0 12.7h5.9V343h-5.9v5.8zm0 12.7h5.9v-5.8h-5.9v5.8zm0 12.7h5.9v-5.8h-5.9v5.8zm0 12.6h5.9V381h-5.9v5.8zm0 12.7h5.9v-5.8h-5.9v5.8zm0 12.7h5.9v-5.8h-5.9v5.8zm0 12.6h5.9V419h-5.9v5.8zm0 12.7h5.9v-5.8h-5.9v5.8zm0 12.7h5.9v-5.8h-5.9v5.8zm0 12.7h5.9V457h-5.9v5.9zm0 12.6h5.9v-5.8h-5.9v5.8zm0 12.7h5.9v-5.8h-5.9v5.8zm0 12.7h5.9V495h-5.9v5.9zm0 12.6h5.9v-5.8h-5.9v5.8zm0 12.7h5.9v-5.8h-5.9v5.8zm0 12.7h5.9V533h-5.9v5.9zm0 12.6h5.9v-5.8h-5.9v5.8zm0 12.7h5.9v-5.8h-5.9v5.8zm0 12.7h5.9V571h-5.9v5.9zm0 12.7h5.9v-5.8h-5.9v5.8zm0 12.6h5.9v-5.8h-5.9v5.8zm0 12.7h5.9V609h-5.9v5.9zm0 12.7h5.9v-5.8h-5.9v5.8zm0 12.6h5.9v-5.8h-5.9v5.8zm0 12.7h5.9v-5.8h-5.9v5.8zm0 12.7h5.9v-5.8h-5.9v5.8zm0 12.6h5.9v-5.8h-5.9v5.8zm0 12.7h5.9v-5.8h-5.9v5.8zm0 12.7h5.9v-5.8h-5.9v5.8zm0 12.7h5.9v-5.8h-5.9v5.8zm0 12.6h5.9v-5.8h-5.9v5.8zm0 12.7h5.9v-5.8h-5.9v5.8zm0 12.7h5.9v-5.8h-5.9v5.8zM410.5-149.4v6.1h6.1v-6.1h-6.1zm0 19.2h6.1v-6.1h-6.1v6.1zm0 13.2h6.1v-6.1h-6.1v6.1zm0 13.2h6.1v-6.1h-6.1v6.1zm0 13.1h6.1v-6.1h-6.1v6.1zm0 13.2h6.1v-6.1h-6.1v6.1zm0 13.2h6.1v-6.1h-6.1v6.1zm0 13.2h6.1v-6.1h-6.1v6.1zm0 13.2h6.1V-44h-6.1v6.1zm0 13.1h6.1v-6.1h-6.1v6.1zm0 13.2h6.1v-6.1h-6.1v6.1zm0 13.2h6.1v-6.1h-6.1v6.1zm0 13.2h6.1V8.7h-6.1v6.1zm0 13.1h6.1v-6.1h-6.1v6.1zm0 13.2h6.1V35h-6.1v6.1zm0 13.2h6.1v-6.1h-6.1v6.1zm0 13.2h6.1v-6.1h-6.1v6.1zm0 13.1h6.1v-6.1h-6.1v6.1zm0 13.2h6.1v-6.1h-6.1v6.1zm0 13.2h6.1v-6.1h-6.1v6.1zm0 13.2h6.1v-6.1h-6.1v6.1zm0 13.2h6.1v-6.1h-6.1v6.1zm0 13.1h6.1v-6.1h-6.1v6.1zm0 13.2h6.1v-6.1h-6.1v6.1zm0 13.2h6.1v-6.1h-6.1v6.1zm0 13.2h6.1V180h-6.1v6.1zm0 13.1h6.1v-6.1h-6.1v6.1zm0 13.2h6.1v-6.1h-6.1v6.1zm0 13.2h6.1v-6.1h-6.1v6.1zm0 13.2h6.1v-6.1h-6.1v6.1zm0 13.1h6.1v-6.1h-6.1v6.1zm0 13.2h6.1V259h-6.1v6.1zm0 13.2h6.1v-6.1h-6.1v6.1zm0 13.2h6.1v-6.1h-6.1v6.1zm0 13.2h6.1v-6.1h-6.1v6.1zm0 13.1h6.1v-6.1h-6.1v6.1zm0 13.2h6.1v-6.1h-6.1v6.1zm0 13.2h6.1v-6.1h-6.1v6.1zm0 13.2h6.1v-6.1h-6.1v6.1zm0 13.1h6.1v-6.1h-6.1v6.1zm0 13.2h6.1v-6.1h-6.1v6.1zm0 13.2h6.1v-6.1h-6.1v6.1zm0 13.2h6.1V404h-6.1v6.1zm-13.2-553.5h6.1v-6.1h-6.1v6.1zm0 13.2h6.1v-6.1h-6.1v6.1zm0 13.2h6.1v-6.1h-6.1v6.1zm0 13.2h6.1v-6.1h-6.1v6.1zm0 13.1h6.1v-6.1h-6.1v6.1zm0 13.2h6.1v-6.1h-6.1v6.1zm0 13.2h6.1v-6.1h-6.1v6.1zm0 13.2h6.1v-6.1h-6.1v6.1zm0 13.2h6.1V-44h-6.1v6.1zm0 13.1h6.1v-6.1h-6.1v6.1zm0 13.2h6.1v-6.1h-6.1v6.1zm0 13.2h6.1v-6.1h-6.1v6.1zm0 13.2h6.1V8.7h-6.1v6.1zm0 13.1h6.1v-6.1h-6.1v6.1zm0 13.2h6.1V35h-6.1v6.1zm0 13.2h6.1v-6.1h-6.1v6.1zm0 13.2h6.1v-6.1h-6.1v6.1zm0 13.1h6.1v-6.1h-6.1v6.1zm0 13.2h6.1v-6.1h-6.1v6.1zm0 13.2h6.1v-6.1h-6.1v6.1zm0 13.2h6.1v-6.1h-6.1v6.1zm0 13.2h6.1v-6.1h-6.1v6.1zm0 13.1h6.1v-6.1h-6.1v6.1zm0 13.2h6.1v-6.1h-6.1v6.1zm0 13.2h6.1v-6.1h-6.1v6.1zm0 13.2h6.1V180h-6.1v6.1zm0 13.1h6.1v-6.1h-6.1v6.1zm0 13.2h6.1v-6.1h-6.1v6.1zm0 13.2h6.1v-6.1h-6.1v6.1zm0 13.2h6.1v-6.1h-6.1v6.1zm0 13.1h6.1v-6.1h-6.1v6.1zm0 13.2h6.1V259h-6.1v6.1zm0 13.2h6.1v-6.1h-6.1v6.1zm0 13.2h6.1v-6.1h-6.1v6.1zm0 13.2h6.1v-6.1h-6.1v6.1zm0 13.1h6.1v-6.1h-6.1v6.1zm0 13.2h6.1v-6.1h-6.1v6.1zm0 13.2h6.1v-6.1h-6.1v6.1zm0 13.2h6.1v-6.1h-6.1v6.1zm0 13.1h6.1v-6.1h-6.1v6.1zm0 13.2h6.1v-6.1h-6.1v6.1zm0 13.2h6.1v-6.1h-6.1v6.1zm0 13.2h6.1V404h-6.1v6.1zm-13.2-553.5h6.1v-6.1h-6.1v6.1zm0 13.2h6.1v-6.1h-6.1v6.1zm0 13.2h6.1v-6.1h-6.1v6.1zm0 13.2h6.1v-6.1h-6.1v6.1zm0 13.1h6.1v-6.1h-6.1v6.1zm0 13.2h6.1v-6.1h-6.1v6.1zm0 13.2h6.1v-6.1h-6.1v6.1zm0 13.2h6.1v-6.1h-6.1v6.1zm0 13.2h6.1V-44h-6.1v6.1zm0 13.1h6.1v-6.1h-6.1v6.1zm0 13.2h6.1v-6.1h-6.1v6.1zm0 13.2h6.1v-6.1h-6.1v6.1zm0 13.2h6.1V8.7h-6.1v6.1zm0 13.1h6.1v-6.1h-6.1v6.1zm0 13.2h6.1V35h-6.1v6.1zm0 13.2h6.1v-6.1h-6.1v6.1zm0 13.2h6.1v-6.1h-6.1v6.1zm0 13.1h6.1v-6.1h-6.1v6.1zm0 13.2h6.1v-6.1h-6.1v6.1zm0 13.2h6.1v-6.1h-6.1v6.1zm0 13.2h6.1v-6.1h-6.1v6.1zm0 13.2h6.1v-6.1h-6.1v6.1zm0 13.1h6.1v-6.1h-6.1v6.1zm0 13.2h6.1v-6.1h-6.1v6.1zm0 13.2h6.1v-6.1h-6.1v6.1zm0 13.2h6.1V180h-6.1v6.1zm0 13.1h6.1v-6.1h-6.1v6.1zm0 13.2h6.1v-6.1h-6.1v6.1zm0 13.2h6.1v-6.1h-6.1v6.1zm0 13.2h6.1v-6.1h-6.1v6.1zm0 13.1h6.1v-6.1h-6.1v6.1zm0 13.2h6.1V259h-6.1v6.1zm0 13.2h6.1v-6.1h-6.1v6.1zm0 13.2h6.1v-6.1h-6.1v6.1zm0 13.2h6.1v-6.1h-6.1v6.1zm0 13.1h6.1v-6.1h-6.1v6.1zm0 13.2h6.1v-6.1h-6.1v6.1zm0 13.2h6.1v-6.1h-6.1v6.1zm0 13.2h6.1v-6.1h-6.1v6.1zm0 13.1h6.1v-6.1h-6.1v6.1zm0 13.2h6.1v-6.1h-6.1v6.1zm0 13.2h6.1v-6.1h-6.1v6.1zm0 13.2h6.1V404h-6.1v6.1zM371-143.4h6.1v-6.1H371v6.1zm0 13.2h6.1v-6.1H371v6.1zm0 13.2h6.1v-6.1H371v6.1zm0 13.2h6.1v-6.1H371v6.1zm0 13.1h6.1v-6.1H371v6.1zm0 13.2h6.1v-6.1H371v6.1zm0 13.2h6.1v-6.1H371v6.1zm0 13.2h6.1v-6.1H371v6.1zm0 13.2h6.1V-44H371v6.1zm0 13.1h6.1v-6.1H371v6.1zm0 13.2h6.1v-6.1H371v6.1zm0 13.2h6.1v-6.1H371v6.1zm0 13.2h6.1V8.7H371v6.1zm0 13.1h6.1v-6.1H371v6.1zm0 13.2h6.1V35H371v6.1zm0 13.2h6.1v-6.1H371v6.1zm0 13.2h6.1v-6.1H371v6.1zm0 13.1h6.1v-6.1H371v6.1zm0 13.2h6.1v-6.1H371v6.1zm0 13.2h6.1v-6.1H371v6.1zm0 13.2h6.1v-6.1H371v6.1zm0 13.2h6.1v-6.1H371v6.1zm0 13.1h6.1v-6.1H371v6.1zm0 13.2h6.1v-6.1H371v6.1zm0 13.2h6.1v-6.1H371v6.1zm0 13.2h6.1V180H371v6.1zm0 13.1h6.1v-6.1H371v6.1zm0 13.2h6.1v-6.1H371v6.1zm0 13.2h6.1v-6.1H371v6.1zm0 13.2h6.1v-6.1H371v6.1zm0 13.1h6.1v-6.1H371v6.1zm0 13.2h6.1V259H371v6.1zm0 13.2h6.1v-6.1H371v6.1zm0 13.2h6.1v-6.1H371v6.1zm0 13.2h6.1v-6.1H371v6.1zm0 13.1h6.1v-6.1H371v6.1zm0 13.2h6.1v-6.1H371v6.1zm0 13.2h6.1v-6.1H371v6.1zm0 13.2h6.1v-6.1H371v6.1zm0 13.1h6.1v-6.1H371v6.1zm0 13.2h6.1v-6.1H371v6.1zm0 13.2h6.1v-6.1H371v6.1zm0 13.2h6.1V404H371v6.1zm-13.2-553.5h6.1v-6.1h-6.1v6.1zm0 13.2h6.1v-6.1h-6.1v6.1zm0 13.2h6.1v-6.1h-6.1v6.1zm0 13.2h6.1v-6.1h-6.1v6.1zm0 13.1h6.1v-6.1h-6.1v6.1zm0 13.2h6.1v-6.1h-6.1v6.1zm0 13.2h6.1v-6.1h-6.1v6.1zm0 13.2h6.1v-6.1h-6.1v6.1zm0 13.2h6.1V-44h-6.1v6.1zm0 13.1h6.1v-6.1h-6.1v6.1zm0 13.2h6.1v-6.1h-6.1v6.1zm0 13.2h6.1v-6.1h-6.1v6.1zm0 13.2h6.1V8.7h-6.1v6.1zm0 13.1h6.1v-6.1h-6.1v6.1zm0 13.2h6.1V35h-6.1v6.1zm0 13.2h6.1v-6.1h-6.1v6.1zm0 13.2h6.1v-6.1h-6.1v6.1zm0 13.1h6.1v-6.1h-6.1v6.1zm0 13.2h6.1v-6.1h-6.1v6.1zm0 13.2h6.1v-6.1h-6.1v6.1zm0 13.2h6.1v-6.1h-6.1v6.1zm0 13.2h6.1v-6.1h-6.1v6.1zm0 13.1h6.1v-6.1h-6.1v6.1zm0 13.2h6.1v-6.1h-6.1v6.1zm0 13.2h6.1v-6.1h-6.1v6.1zm0 13.2h6.1V180h-6.1v6.1zm0 13.1h6.1v-6.1h-6.1v6.1zm0 13.2h6.1v-6.1h-6.1v6.1zm0 13.2h6.1v-6.1h-6.1v6.1zm0 13.2h6.1v-6.1h-6.1v6.1zm0 13.1h6.1v-6.1h-6.1v6.1zm0 13.2h6.1V259h-6.1v6.1zm0 13.2h6.1v-6.1h-6.1v6.1zm0 13.2h6.1v-6.1h-6.1v6.1zm0 13.2h6.1v-6.1h-6.1v6.1zm0 13.1h6.1v-6.1h-6.1v6.1zm0 13.2h6.1v-6.1h-6.1v6.1zm0 13.2h6.1v-6.1h-6.1v6.1zm0 13.2h6.1v-6.1h-6.1v6.1zm0 13.1h6.1v-6.1h-6.1v6.1zm0 13.2h6.1v-6.1h-6.1v6.1zm0 13.2h6.1v-6.1h-6.1v6.1zm0 13.2h6.1V404h-6.1v6.1zm-13.2-553.5h6.1v-6.1h-6.1v6.1zm0 13.2h6.1v-6.1h-6.1v6.1zm0 13.2h6.1v-6.1h-6.1v6.1zm0 13.2h6.1v-6.1h-6.1v6.1zm0 13.1h6.1v-6.1h-6.1v6.1zm0 13.2h6.1v-6.1h-6.1v6.1zm0 13.2h6.1v-6.1h-6.1v6.1zm0 13.2h6.1v-6.1h-6.1v6.1zm0 13.2h6.1V-44h-6.1v6.1zm0 13.1h6.1v-6.1h-6.1v6.1zm0 13.2h6.1v-6.1h-6.1v6.1zm0 13.2h6.1v-6.1h-6.1v6.1zm0 13.2h6.1V8.7h-6.1v6.1zm0 13.1h6.1v-6.1h-6.1v6.1zm0 13.2h6.1V35h-6.1v6.1zm0 13.2h6.1v-6.1h-6.1v6.1zm0 13.2h6.1v-6.1h-6.1v6.1zm0 13.1h6.1v-6.1h-6.1v6.1zm0 13.2h6.1v-6.1h-6.1v6.1zm0 13.2h6.1v-6.1h-6.1v6.1zm0 13.2h6.1v-6.1h-6.1v6.1zm0 13.2h6.1v-6.1h-6.1v6.1zm0 13.1h6.1v-6.1h-6.1v6.1zm0 13.2h6.1v-6.1h-6.1v6.1zm0 13.2h6.1v-6.1h-6.1v6.1zm0 13.2h6.1V180h-6.1v6.1zm0 13.1h6.1v-6.1h-6.1v6.1zm0 13.2h6.1v-6.1h-6.1v6.1zm0 13.2h6.1v-6.1h-6.1v6.1zm0 13.2h6.1v-6.1h-6.1v6.1zm0 13.1h6.1v-6.1h-6.1v6.1zm0 13.2h6.1V259h-6.1v6.1zm0 13.2h6.1v-6.1h-6.1v6.1zm0 13.2h6.1v-6.1h-6.1v6.1zm0 13.2h6.1v-6.1h-6.1v6.1zm0 13.1h6.1v-6.1h-6.1v6.1zm0 13.2h6.1v-6.1h-6.1v6.1zm0 13.2h6.1v-6.1h-6.1v6.1zm0 13.2h6.1v-6.1h-6.1v6.1zm0 13.1h6.1v-6.1h-6.1v6.1zm0 13.2h6.1v-6.1h-6.1v6.1zm0 13.2h6.1v-6.1h-6.1v6.1zm0 13.2h6.1V404h-6.1v6.1zm-13.2-553.5h6.1v-6.1h-6.1v6.1zm0 13.2h6.1v-6.1h-6.1v6.1zm0 13.2h6.1v-6.1h-6.1v6.1zm0 13.2h6.1v-6.1h-6.1v6.1zm0 13.1h6.1v-6.1h-6.1v6.1zm0 13.2h6.1v-6.1h-6.1v6.1zm0 13.2h6.1v-6.1h-6.1v6.1zm0 13.2h6.1v-6.1h-6.1v6.1zm0 13.2h6.1V-44h-6.1v6.1zm0 13.1h6.1v-6.1h-6.1v6.1zm0 13.2h6.1v-6.1h-6.1v6.1zm0 13.2h6.1v-6.1h-6.1v6.1zm0 13.2h6.1V8.7h-6.1v6.1zm0 13.1h6.1v-6.1h-6.1v6.1zm0 13.2h6.1V35h-6.1v6.1zm0 13.2h6.1v-6.1h-6.1v6.1zm0 13.2h6.1v-6.1h-6.1v6.1zm0 13.1h6.1v-6.1h-6.1v6.1zm0 13.2h6.1v-6.1h-6.1v6.1zm0 13.2h6.1v-6.1h-6.1v6.1zm0 13.2h6.1v-6.1h-6.1v6.1zm0 13.2h6.1v-6.1h-6.1v6.1zm0 13.1h6.1v-6.1h-6.1v6.1zm0 13.2h6.1v-6.1h-6.1v6.1zm0 13.2h6.1v-6.1h-6.1v6.1zm0 13.2h6.1V180h-6.1v6.1zm0 13.1h6.1v-6.1h-6.1v6.1zm0 13.2h6.1v-6.1h-6.1v6.1zm0 13.2h6.1v-6.1h-6.1v6.1zm0 13.2h6.1v-6.1h-6.1v6.1zm0 13.1h6.1v-6.1h-6.1v6.1zm0 13.2h6.1V259h-6.1v6.1zm0 13.2h6.1v-6.1h-6.1v6.1zm0 13.2h6.1v-6.1h-6.1v6.1zm0 13.2h6.1v-6.1h-6.1v6.1zm0 13.1h6.1v-6.1h-6.1v6.1zm0 13.2h6.1v-6.1h-6.1v6.1zm0 13.2h6.1v-6.1h-6.1v6.1zm0 13.2h6.1v-6.1h-6.1v6.1zm0 13.1h6.1v-6.1h-6.1v6.1zm0 13.2h6.1v-6.1h-6.1v6.1zm0 13.2h6.1v-6.1h-6.1v6.1zm0 13.2h6.1V404h-6.1v6.1zm-13.2-553.5h6.1v-6.1h-6.1v6.1zm0 13.2h6.1v-6.1h-6.1v6.1zm0 13.2h6.1v-6.1h-6.1v6.1zm0 13.2h6.1v-6.1h-6.1v6.1zm0 13.1h6.1v-6.1h-6.1v6.1zm0 13.2h6.1v-6.1h-6.1v6.1zm0 13.2h6.1v-6.1h-6.1v6.1zm0 13.2h6.1v-6.1h-6.1v6.1zm0 13.2h6.1V-44h-6.1v6.1zm0 13.1h6.1v-6.1h-6.1v6.1zm0 13.2h6.1v-6.1h-6.1v6.1zm0 13.2h6.1v-6.1h-6.1v6.1zm0 13.2h6.1V8.7h-6.1v6.1zm0 13.1h6.1v-6.1h-6.1v6.1zm0 13.2h6.1V35h-6.1v6.1zm0 13.2h6.1v-6.1h-6.1v6.1zm0 13.2h6.1v-6.1h-6.1v6.1zm0 13.1h6.1v-6.1h-6.1v6.1zm0 13.2h6.1v-6.1h-6.1v6.1zm0 13.2h6.1v-6.1h-6.1v6.1zm0 13.2h6.1v-6.1h-6.1v6.1zm0 13.2h6.1v-6.1h-6.1v6.1zm0 13.1h6.1v-6.1h-6.1v6.1zm0 13.2h6.1v-6.1h-6.1v6.1zm0 13.2h6.1v-6.1h-6.1v6.1zm0 13.2h6.1V180h-6.1v6.1zm0 13.1h6.1v-6.1h-6.1v6.1zm0 13.2h6.1v-6.1h-6.1v6.1zm0 13.2h6.1v-6.1h-6.1v6.1zm0 13.2h6.1v-6.1h-6.1v6.1zm0 13.1h6.1v-6.1h-6.1v6.1zm0 13.2h6.1V259h-6.1v6.1zm0 13.2h6.1v-6.1h-6.1v6.1zm0 13.2h6.1v-6.1h-6.1v6.1zm0 13.2h6.1v-6.1h-6.1v6.1zm0 13.1h6.1v-6.1h-6.1v6.1zm0 13.2h6.1v-6.1h-6.1v6.1zm0 13.2h6.1v-6.1h-6.1v6.1zm0 13.2h6.1v-6.1h-6.1v6.1zm0 13.1h6.1v-6.1h-6.1v6.1zm0 13.2h6.1v-6.1h-6.1v6.1zm0 13.2h6.1v-6.1h-6.1v6.1zm0 13.2h6.1V404h-6.1v6.1zM305-143.4h6.1v-6.1H305v6.1zm0 13.2h6.1v-6.1H305v6.1zm0 13.2h6.1v-6.1H305v6.1zm0 13.2h6.1v-6.1H305v6.1zm0 13.1h6.1v-6.1H305v6.1zm0 13.2h6.1v-6.1H305v6.1zm0 13.2h6.1v-6.1H305v6.1zm0 13.2h6.1v-6.1H305v6.1zm0 13.2h6.1V-44H305v6.1zm0 13.1h6.1v-6.1H305v6.1zm0 13.2h6.1v-6.1H305v6.1zm0 13.2h6.1v-6.1H305v6.1zm0 13.2h6.1V8.7H305v6.1zm0 13.1h6.1v-6.1H305v6.1zm0 13.2h6.1V35H305v6.1zm0 13.2h6.1v-6.1H305v6.1zm0 13.2h6.1v-6.1H305v6.1zm0 13.1h6.1v-6.1H305v6.1zm0 13.2h6.1v-6.1H305v6.1zm0 13.2h6.1v-6.1H305v6.1zm0 13.2h6.1v-6.1H305v6.1zm0 13.2h6.1v-6.1H305v6.1zm0 13.1h6.1v-6.1H305v6.1zm0 13.2h6.1v-6.1H305v6.1zm0 13.2h6.1v-6.1H305v6.1zm0 13.2h6.1V180H305v6.1zm0 13.1h6.1v-6.1H305v6.1zm0 13.2h6.1v-6.1H305v6.1zm0 13.2h6.1v-6.1H305v6.1zm0 13.2h6.1v-6.1H305v6.1zm0 13.1h6.1v-6.1H305v6.1zm0 13.2h6.1V259H305v6.1zm0 13.2h6.1v-6.1H305v6.1zm0 13.2h6.1v-6.1H305v6.1zm0 13.2h6.1v-6.1H305v6.1zm0 13.1h6.1v-6.1H305v6.1zm0 13.2h6.1v-6.1H305v6.1zm0 13.2h6.1v-6.1H305v6.1zm0 13.2h6.1v-6.1H305v6.1zm0 13.1h6.1v-6.1H305v6.1zm0 13.2h6.1v-6.1H305v6.1zm0 13.2h6.1v-6.1H305v6.1zm0 13.2h6.1V404H305v6.1zm-13.2-553.5h6.1v-6.1h-6.1v6.1zm0 13.2h6.1v-6.1h-6.1v6.1zm0 13.2h6.1v-6.1h-6.1v6.1zm0 13.2h6.1v-6.1h-6.1v6.1zm0 13.1h6.1v-6.1h-6.1v6.1zm0 13.2h6.1v-6.1h-6.1v6.1zm0 13.2h6.1v-6.1h-6.1v6.1zm0 13.2h6.1v-6.1h-6.1v6.1zm0 13.2h6.1V-44h-6.1v6.1zm0 13.1h6.1v-6.1h-6.1v6.1zm0 13.2h6.1v-6.1h-6.1v6.1zm0 13.2h6.1v-6.1h-6.1v6.1zm0 13.2h6.1V8.7h-6.1v6.1zm0 13.1h6.1v-6.1h-6.1v6.1zm0 13.2h6.1V35h-6.1v6.1zm0 13.2h6.1v-6.1h-6.1v6.1zm0 13.2h6.1v-6.1h-6.1v6.1zm0 13.1h6.1v-6.1h-6.1v6.1zm0 13.2h6.1v-6.1h-6.1v6.1zm0 13.2h6.1v-6.1h-6.1v6.1zm0 13.2h6.1v-6.1h-6.1v6.1zm0 13.2h6.1v-6.1h-6.1v6.1zm0 13.1h6.1v-6.1h-6.1v6.1zm0 13.2h6.1v-6.1h-6.1v6.1zm0 13.2h6.1v-6.1h-6.1v6.1zm0 13.2h6.1V180h-6.1v6.1zm0 13.1h6.1v-6.1h-6.1v6.1zm0 13.2h6.1v-6.1h-6.1v6.1zm0 13.2h6.1v-6.1h-6.1v6.1zm0 13.2h6.1v-6.1h-6.1v6.1zm0 13.1h6.1v-6.1h-6.1v6.1zm0 13.2h6.1V259h-6.1v6.1zm0 13.2h6.1v-6.1h-6.1v6.1zm0 13.2h6.1v-6.1h-6.1v6.1zm0 13.2h6.1v-6.1h-6.1v6.1zm0 13.1h6.1v-6.1h-6.1v6.1zm0 13.2h6.1v-6.1h-6.1v6.1zm0 13.2h6.1v-6.1h-6.1v6.1zm0 13.2h6.1v-6.1h-6.1v6.1zm0 13.1h6.1v-6.1h-6.1v6.1zm0 13.2h6.1v-6.1h-6.1v6.1zm0 13.2h6.1v-6.1h-6.1v6.1zm0 13.2h6.1V404h-6.1v6.1zm-13.2-553.5h6.1v-6.1h-6.1v6.1zm0 13.2h6.1v-6.1h-6.1v6.1zm0 13.2h6.1v-6.1h-6.1v6.1zm0 13.2h6.1v-6.1h-6.1v6.1zm0 13.1h6.1v-6.1h-6.1v6.1zm0 13.2h6.1v-6.1h-6.1v6.1zm0 13.2h6.1v-6.1h-6.1v6.1zm0 13.2h6.1v-6.1h-6.1v6.1zm0 13.2h6.1V-44h-6.1v6.1zm0 13.1h6.1v-6.1h-6.1v6.1zm0 13.2h6.1v-6.1h-6.1v6.1zm0 13.2h6.1v-6.1h-6.1v6.1zm0 13.2h6.1V8.7h-6.1v6.1zm0 13.1h6.1v-6.1h-6.1v6.1zm0 13.2h6.1V35h-6.1v6.1zm0 13.2h6.1v-6.1h-6.1v6.1zm0 13.2h6.1v-6.1h-6.1v6.1zm0 13.1h6.1v-6.1h-6.1v6.1zm0 13.2h6.1v-6.1h-6.1v6.1zm0 13.2h6.1v-6.1h-6.1v6.1zm0 13.2h6.1v-6.1h-6.1v6.1zm0 13.2h6.1v-6.1h-6.1v6.1zm0 13.1h6.1v-6.1h-6.1v6.1zm0 13.2h6.1v-6.1h-6.1v6.1zm0 13.2h6.1v-6.1h-6.1v6.1zm0 13.2h6.1V180h-6.1v6.1zm0 13.1h6.1v-6.1h-6.1v6.1zm0 13.2h6.1v-6.1h-6.1v6.1zm0 13.2h6.1v-6.1h-6.1v6.1zm0 13.2h6.1v-6.1h-6.1v6.1zm0 13.1h6.1v-6.1h-6.1v6.1zm0 13.2h6.1V259h-6.1v6.1zm0 13.2h6.1v-6.1h-6.1v6.1zm0 13.2h6.1v-6.1h-6.1v6.1zm0 13.2h6.1v-6.1h-6.1v6.1zm0 13.1h6.1v-6.1h-6.1v6.1zm0 13.2h6.1v-6.1h-6.1v6.1zm0 13.2h6.1v-6.1h-6.1v6.1zm0 13.2h6.1v-6.1h-6.1v6.1zm0 13.1h6.1v-6.1h-6.1v6.1zm0 13.2h6.1v-6.1h-6.1v6.1zm0 13.2h6.1v-6.1h-6.1v6.1zm0 13.2h6.1V404h-6.1v6.1zm-13.2-553.5h6.1v-6.1h-6.1v6.1zm0 13.2h6.1v-6.1h-6.1v6.1zm0 13.2h6.1v-6.1h-6.1v6.1zm0 13.2h6.1v-6.1h-6.1v6.1zm0 13.1h6.1v-6.1h-6.1v6.1zm0 13.2h6.1v-6.1h-6.1v6.1zm0 13.2h6.1v-6.1h-6.1v6.1zm0 13.2h6.1v-6.1h-6.1v6.1zm0 13.2h6.1V-44h-6.1v6.1zm0 13.1h6.1v-6.1h-6.1v6.1zm0 13.2h6.1v-6.1h-6.1v6.1zm0 13.2h6.1v-6.1h-6.1v6.1zm0 13.2h6.1V8.7h-6.1v6.1zm0 13.1h6.1v-6.1h-6.1v6.1zm0 13.2h6.1V35h-6.1v6.1zm0 13.2h6.1v-6.1h-6.1v6.1zm0 13.2h6.1v-6.1h-6.1v6.1zm0 13.1h6.1v-6.1h-6.1v6.1zm0 13.2h6.1v-6.1h-6.1v6.1zm0 13.2h6.1v-6.1h-6.1v6.1zm0 13.2h6.1v-6.1h-6.1v6.1zm0 13.2h6.1v-6.1h-6.1v6.1zm0 13.1h6.1v-6.1h-6.1v6.1zm0 13.2h6.1v-6.1h-6.1v6.1zm0 13.2h6.1v-6.1h-6.1v6.1zm0 13.2h6.1V180h-6.1v6.1zm0 13.1h6.1v-6.1h-6.1v6.1zm0 13.2h6.1v-6.1h-6.1v6.1zm0 13.2h6.1v-6.1h-6.1v6.1zm0 13.2h6.1v-6.1h-6.1v6.1zm0 13.1h6.1v-6.1h-6.1v6.1zm0 13.2h6.1V259h-6.1v6.1zm0 13.2h6.1v-6.1h-6.1v6.1zm0 13.2h6.1v-6.1h-6.1v6.1zm0 13.2h6.1v-6.1h-6.1v6.1zm0 13.1h6.1v-6.1h-6.1v6.1zm0 13.2h6.1v-6.1h-6.1v6.1zm0 13.2h6.1v-6.1h-6.1v6.1zm0 13.2h6.1v-6.1h-6.1v6.1zm0 13.1h6.1v-6.1h-6.1v6.1zm0 13.2h6.1v-6.1h-6.1v6.1zm0 13.2h6.1v-6.1h-6.1v6.1zm0 13.2h6.1V404h-6.1v6.1zm-13.2-553.5h6.1v-6.1h-6.1v6.1zm0 13.2h6.1v-6.1h-6.1v6.1zm0 13.2h6.1v-6.1h-6.1v6.1zm0 13.2h6.1v-6.1h-6.1v6.1zm0 13.1h6.1v-6.1h-6.1v6.1zm0 13.2h6.1v-6.1h-6.1v6.1zm0 13.2h6.1v-6.1h-6.1v6.1zm0 13.2h6.1v-6.1h-6.1v6.1zm0 13.2h6.1V-44h-6.1v6.1zm0 13.1h6.1v-6.1h-6.1v6.1zm0 13.2h6.1v-6.1h-6.1v6.1zm0 13.2h6.1v-6.1h-6.1v6.1zm0 13.2h6.1V8.7h-6.1v6.1zm0 13.1h6.1v-6.1h-6.1v6.1zm0 13.2h6.1V35h-6.1v6.1zm0 13.2h6.1v-6.1h-6.1v6.1zm0 13.2h6.1v-6.1h-6.1v6.1zm0 13.1h6.1v-6.1h-6.1v6.1zm0 13.2h6.1v-6.1h-6.1v6.1zm0 13.2h6.1v-6.1h-6.1v6.1zm0 13.2h6.1v-6.1h-6.1v6.1zm0 13.2h6.1v-6.1h-6.1v6.1zm0 13.1h6.1v-6.1h-6.1v6.1zm0 13.2h6.1v-6.1h-6.1v6.1zm0 13.2h6.1v-6.1h-6.1v6.1zm0 13.2h6.1V180h-6.1v6.1zm0 13.1h6.1v-6.1h-6.1v6.1zm0 13.2h6.1v-6.1h-6.1v6.1zm0 13.2h6.1v-6.1h-6.1v6.1zm0 13.2h6.1v-6.1h-6.1v6.1zm0 13.1h6.1v-6.1h-6.1v6.1zm0 13.2h6.1V259h-6.1v6.1zm0 13.2h6.1v-6.1h-6.1v6.1zm0 13.2h6.1v-6.1h-6.1v6.1zm0 13.2h6.1v-6.1h-6.1v6.1zm0 13.1h6.1v-6.1h-6.1v6.1zm0 13.2h6.1v-6.1h-6.1v6.1zm0 13.2h6.1v-6.1h-6.1v6.1zm0 13.2h6.1v-6.1h-6.1v6.1zm0 13.1h6.1v-6.1h-6.1v6.1zm0 13.2h6.1v-6.1h-6.1v6.1zm0 13.2h6.1v-6.1h-6.1v6.1zm0 13.2h6.1V404h-6.1v6.1zM239-143.4h6.1v-6.1H239v6.1zm0 13.2h6.1v-6.1H239v6.1zm0 13.2h6.1v-6.1H239v6.1zm0 13.2h6.1v-6.1H239v6.1zm0 13.1h6.1v-6.1H239v6.1zm0 13.2h6.1v-6.1H239v6.1zm0 13.2h6.1v-6.1H239v6.1zm0 13.2h6.1v-6.1H239v6.1zm0 13.2h6.1V-44H239v6.1zm0 13.1h6.1v-6.1H239v6.1zm0 13.2h6.1v-6.1H239v6.1zm0 13.2h6.1v-6.1H239v6.1zm0 13.2h6.1V8.7H239v6.1zm0 13.1h6.1v-6.1H239v6.1zm0 13.2h6.1V35H239v6.1zm0 13.2h6.1v-6.1H239v6.1zm0 13.2h6.1v-6.1H239v6.1zm0 13.1h6.1v-6.1H239v6.1zm0 13.2h6.1v-6.1H239v6.1zm0 13.2h6.1v-6.1H239v6.1zm0 13.2h6.1v-6.1H239v6.1zm0 13.2h6.1v-6.1H239v6.1zm0 13.1h6.1v-6.1H239v6.1zm0 13.2h6.1v-6.1H239v6.1zm0 13.2h6.1v-6.1H239v6.1zm0 13.2h6.1V180H239v6.1zm0 13.1h6.1v-6.1H239v6.1zm0 13.2h6.1v-6.1H239v6.1zm0 13.2h6.1v-6.1H239v6.1zm0 13.2h6.1v-6.1H239v6.1zm0 13.1h6.1v-6.1H239v6.1zm0 13.2h6.1V259H239v6.1zm0 13.2h6.1v-6.1H239v6.1zm0 13.2h6.1v-6.1H239v6.1zm0 13.2h6.1v-6.1H239v6.1zm0 13.1h6.1v-6.1H239v6.1zm0 13.2h6.1v-6.1H239v6.1zm0 13.2h6.1v-6.1H239v6.1zm0 13.2h6.1v-6.1H239v6.1zm0 13.1h6.1v-6.1H239v6.1zm0 13.2h6.1v-6.1H239v6.1zm0 13.2h6.1v-6.1H239v6.1zm0 13.2h6.1V404H239v6.1zm-13.2-553.5h6.1v-6.1h-6.1v6.1zm0 13.2h6.1v-6.1h-6.1v6.1zm0 13.2h6.1v-6.1h-6.1v6.1zm0 13.2h6.1v-6.1h-6.1v6.1zm0 13.1h6.1v-6.1h-6.1v6.1zm0 13.2h6.1v-6.1h-6.1v6.1zm0 13.2h6.1v-6.1h-6.1v6.1zm0 13.2h6.1v-6.1h-6.1v6.1zm0 13.2h6.1V-44h-6.1v6.1zm0 13.1h6.1v-6.1h-6.1v6.1zm0 13.2h6.1v-6.1h-6.1v6.1zm0 13.2h6.1v-6.1h-6.1v6.1zm0 13.2h6.1V8.7h-6.1v6.1zm0 13.1h6.1v-6.1h-6.1v6.1zm0 13.2h6.1V35h-6.1v6.1zm0 13.2h6.1v-6.1h-6.1v6.1zm0 13.2h6.1v-6.1h-6.1v6.1zm0 13.1h6.1v-6.1h-6.1v6.1zm0 13.2h6.1v-6.1h-6.1v6.1zm0 13.2h6.1v-6.1h-6.1v6.1zm0 13.2h6.1v-6.1h-6.1v6.1zm0 13.2h6.1v-6.1h-6.1v6.1zm0 13.1h6.1v-6.1h-6.1v6.1zm0 13.2h6.1v-6.1h-6.1v6.1zm0 13.2h6.1v-6.1h-6.1v6.1zm0 13.2h6.1V180h-6.1v6.1zm0 13.1h6.1v-6.1h-6.1v6.1zm0 13.2h6.1v-6.1h-6.1v6.1zm0 13.2h6.1v-6.1h-6.1v6.1zm0 13.2h6.1v-6.1h-6.1v6.1zm0 13.1h6.1v-6.1h-6.1v6.1zm0 13.2h6.1V259h-6.1v6.1zm0 13.2h6.1v-6.1h-6.1v6.1zm0 13.2h6.1v-6.1h-6.1v6.1zm0 13.2h6.1v-6.1h-6.1v6.1zm0 13.1h6.1v-6.1h-6.1v6.1zm0 13.2h6.1v-6.1h-6.1v6.1zm0 13.2h6.1v-6.1h-6.1v6.1zm0 13.2h6.1v-6.1h-6.1v6.1zm0 13.1h6.1v-6.1h-6.1v6.1zm0 13.2h6.1v-6.1h-6.1v6.1zm0 13.2h6.1v-6.1h-6.1v6.1zm0 13.2h6.1V404h-6.1v6.1zm-13.1-553.5h6.1v-6.1h-6.1v6.1zm0 13.2h6.1v-6.1h-6.1v6.1zm0 13.2h6.1v-6.1h-6.1v6.1zm0 13.2h6.1v-6.1h-6.1v6.1zm0 13.1h6.1v-6.1h-6.1v6.1zm0 13.2h6.1v-6.1h-6.1v6.1zm0 13.2h6.1v-6.1h-6.1v6.1zm0 13.2h6.1v-6.1h-6.1v6.1zm0 13.2h6.1V-44h-6.1v6.1zm0 13.1h6.1v-6.1h-6.1v6.1zm0 13.2h6.1v-6.1h-6.1v6.1zm0 13.2h6.1v-6.1h-6.1v6.1zm0 13.2h6.1V8.7h-6.1v6.1zm0 13.1h6.1v-6.1h-6.1v6.1zm0 13.2h6.1V35h-6.1v6.1zm0 13.2h6.1v-6.1h-6.1v6.1zm0 13.2h6.1v-6.1h-6.1v6.1zm0 13.1h6.1v-6.1h-6.1v6.1zm0 13.2h6.1v-6.1h-6.1v6.1zm0 13.2h6.1v-6.1h-6.1v6.1zm0 13.2h6.1v-6.1h-6.1v6.1zm0 13.2h6.1v-6.1h-6.1v6.1zm0 13.1h6.1v-6.1h-6.1v6.1zm0 13.2h6.1v-6.1h-6.1v6.1zm0 13.2h6.1v-6.1h-6.1v6.1zm0 13.2h6.1V180h-6.1v6.1zm0 13.1h6.1v-6.1h-6.1v6.1zm0 13.2h6.1v-6.1h-6.1v6.1zm0 13.2h6.1v-6.1h-6.1v6.1zm0 13.2h6.1v-6.1h-6.1v6.1zm0 13.1h6.1v-6.1h-6.1v6.1zm0 13.2h6.1V259h-6.1v6.1zm0 13.2h6.1v-6.1h-6.1v6.1zm0 13.2h6.1v-6.1h-6.1v6.1zm0 13.2h6.1v-6.1h-6.1v6.1zm0 13.1h6.1v-6.1h-6.1v6.1zm0 13.2h6.1v-6.1h-6.1v6.1zm0 13.2h6.1v-6.1h-6.1v6.1zm0 13.2h6.1v-6.1h-6.1v6.1zm0 13.1h6.1v-6.1h-6.1v6.1zm0 13.2h6.1v-6.1h-6.1v6.1zm0 13.2h6.1v-6.1h-6.1v6.1zm0 13.2h6.1V404h-6.1v6.1zm-13.2-553.5h6.1v-6.1h-6.1v6.1zm0 13.2h6.1v-6.1h-6.1v6.1zm0 13.2h6.1v-6.1h-6.1v6.1zm0 13.2h6.1v-6.1h-6.1v6.1zm0 13.1h6.1v-6.1h-6.1v6.1zm0 13.2h6.1v-6.1h-6.1v6.1zm0 13.2h6.1v-6.1h-6.1v6.1zm0 13.2h6.1v-6.1h-6.1v6.1zm0 13.2h6.1V-44h-6.1v6.1zm0 13.1h6.1v-6.1h-6.1v6.1zm0 13.2h6.1v-6.1h-6.1v6.1zm0 13.2h6.1v-6.1h-6.1v6.1zm0 13.2h6.1V8.7h-6.1v6.1zm0 13.1h6.1v-6.1h-6.1v6.1zm0 13.2h6.1V35h-6.1v6.1zm0 13.2h6.1v-6.1h-6.1v6.1zm0 13.2h6.1v-6.1h-6.1v6.1zm0 13.1h6.1v-6.1h-6.1v6.1zm0 13.2h6.1v-6.1h-6.1v6.1zm0 13.2h6.1v-6.1h-6.1v6.1zm0 13.2h6.1v-6.1h-6.1v6.1zm0 13.2h6.1v-6.1h-6.1v6.1zm0 13.1h6.1v-6.1h-6.1v6.1zm0 13.2h6.1v-6.1h-6.1v6.1zm0 13.2h6.1v-6.1h-6.1v6.1zm0 13.2h6.1V180h-6.1v6.1zm0 13.1h6.1v-6.1h-6.1v6.1zm0 13.2h6.1v-6.1h-6.1v6.1zm0 13.2h6.1v-6.1h-6.1v6.1zm0 13.2h6.1v-6.1h-6.1v6.1zm0 13.1h6.1v-6.1h-6.1v6.1zm0 13.2h6.1V259h-6.1v6.1zm0 13.2h6.1v-6.1h-6.1v6.1zm0 13.2h6.1v-6.1h-6.1v6.1zm0 13.2h6.1v-6.1h-6.1v6.1zm0 13.1h6.1v-6.1h-6.1v6.1zm0 13.2h6.1v-6.1h-6.1v6.1zm0 13.2h6.1v-6.1h-6.1v6.1zm0 13.2h6.1v-6.1h-6.1v6.1zm0 13.1h6.1v-6.1h-6.1v6.1zm0 13.2h6.1v-6.1h-6.1v6.1zm0 13.2h6.1v-6.1h-6.1v6.1zm0 13.2h6.1V404h-6.1v6.1zm-13.2-553.5h6.1v-6.1h-6.1v6.1zm0 13.2h6.1v-6.1h-6.1v6.1zm0 13.2h6.1v-6.1h-6.1v6.1zm0 13.2h6.1v-6.1h-6.1v6.1zm0 13.1h6.1v-6.1h-6.1v6.1zm0 13.2h6.1v-6.1h-6.1v6.1zm0 13.2h6.1v-6.1h-6.1v6.1zm0 13.2h6.1v-6.1h-6.1v6.1zm0 13.2h6.1V-44h-6.1v6.1zm0 13.1h6.1v-6.1h-6.1v6.1zm0 13.2h6.1v-6.1h-6.1v6.1zm0 13.2h6.1v-6.1h-6.1v6.1zm0 13.2h6.1V8.7h-6.1v6.1zm0 13.1h6.1v-6.1h-6.1v6.1zm0 13.2h6.1V35h-6.1v6.1zm0 13.2h6.1v-6.1h-6.1v6.1zm0 13.2h6.1v-6.1h-6.1v6.1zm0 13.1h6.1v-6.1h-6.1v6.1zm0 13.2h6.1v-6.1h-6.1v6.1zm0 13.2h6.1v-6.1h-6.1v6.1zm0 13.2h6.1v-6.1h-6.1v6.1zm0 13.2h6.1v-6.1h-6.1v6.1zm0 13.1h6.1v-6.1h-6.1v6.1zm0 13.2h6.1v-6.1h-6.1v6.1zm0 13.2h6.1v-6.1h-6.1v6.1zm0 13.2h6.1V180h-6.1v6.1zm0 13.1h6.1v-6.1h-6.1v6.1zm0 13.2h6.1v-6.1h-6.1v6.1zm0 13.2h6.1v-6.1h-6.1v6.1zm0 13.2h6.1v-6.1h-6.1v6.1zm0 13.1h6.1v-6.1h-6.1v6.1zm0 13.2h6.1V259h-6.1v6.1zm0 13.2h6.1v-6.1h-6.1v6.1zm0 13.2h6.1v-6.1h-6.1v6.1zm0 13.2h6.1v-6.1h-6.1v6.1zm0 13.1h6.1v-6.1h-6.1v6.1zm0 13.2h6.1v-6.1h-6.1v6.1zm0 13.2h6.1v-6.1h-6.1v6.1zm0 13.2h6.1v-6.1h-6.1v6.1zm0 13.1h6.1v-6.1h-6.1v6.1zm0 13.2h6.1v-6.1h-6.1v6.1zm0 13.2h6.1v-6.1h-6.1v6.1zm0 13.2h6.1V404h-6.1v6.1zm-13.2-553.5h6.1v-6.1h-6.1v6.1zm0 13.2h6.1v-6.1h-6.1v6.1zm0 13.2h6.1v-6.1h-6.1v6.1zm0 13.2h6.1v-6.1h-6.1v6.1zm0 13.1h6.1v-6.1h-6.1v6.1zm0 13.2h6.1v-6.1h-6.1v6.1zm0 13.2h6.1v-6.1h-6.1v6.1zm0 13.2h6.1v-6.1h-6.1v6.1zm0 13.2h6.1V-44h-6.1v6.1zm0 13.1h6.1v-6.1h-6.1v6.1zm0 13.2h6.1v-6.1h-6.1v6.1zm0 13.2h6.1v-6.1h-6.1v6.1zm0 13.2h6.1V8.7h-6.1v6.1zm0 13.1h6.1v-6.1h-6.1v6.1zm0 13.2h6.1V35h-6.1v6.1zm0 13.2h6.1v-6.1h-6.1v6.1zm0 13.2h6.1v-6.1h-6.1v6.1zm0 13.1h6.1v-6.1h-6.1v6.1zm0 13.2h6.1v-6.1h-6.1v6.1zm0 13.2h6.1v-6.1h-6.1v6.1zm0 13.2h6.1v-6.1h-6.1v6.1zm0 13.2h6.1v-6.1h-6.1v6.1zm0 13.1h6.1v-6.1h-6.1v6.1zm0 13.2h6.1v-6.1h-6.1v6.1zm0 13.2h6.1v-6.1h-6.1v6.1zm0 13.2h6.1V180h-6.1v6.1zm0 13.1h6.1v-6.1h-6.1v6.1zm0 13.2h6.1v-6.1h-6.1v6.1zm0 13.2h6.1v-6.1h-6.1v6.1zm0 13.2h6.1v-6.1h-6.1v6.1zm0 13.1h6.1v-6.1h-6.1v6.1zm0 13.2h6.1V259h-6.1v6.1zm0 13.2h6.1v-6.1h-6.1v6.1zm0 13.2h6.1v-6.1h-6.1v6.1zm0 13.2h6.1v-6.1h-6.1v6.1zm0 13.1h6.1v-6.1h-6.1v6.1zm0 13.2h6.1v-6.1h-6.1v6.1zm0 13.2h6.1v-6.1h-6.1v6.1zm0 13.2h6.1v-6.1h-6.1v6.1zm0 13.1h6.1v-6.1h-6.1v6.1zm0 13.2h6.1v-6.1h-6.1v6.1zm0 13.2h6.1v-6.1h-6.1v6.1zm0 13.2h6.1V404h-6.1v6.1zm-13.2-553.5h6.1v-6.1h-6.1v6.1zm0 13.2h6.1v-6.1h-6.1v6.1zm0 13.2h6.1v-6.1h-6.1v6.1zm0 13.2h6.1v-6.1h-6.1v6.1zm0 13.1h6.1v-6.1h-6.1v6.1zm0 13.2h6.1v-6.1h-6.1v6.1zm0 13.2h6.1v-6.1h-6.1v6.1zm0 13.2h6.1v-6.1h-6.1v6.1zm0 13.2h6.1V-44h-6.1v6.1zm0 13.1h6.1v-6.1h-6.1v6.1zm0 13.2h6.1v-6.1h-6.1v6.1zm0 13.2h6.1v-6.1h-6.1v6.1zm0 13.2h6.1V8.7h-6.1v6.1zm0 13.1h6.1v-6.1h-6.1v6.1zm0 13.2h6.1V35h-6.1v6.1zm0 13.2h6.1v-6.1h-6.1v6.1zm0 13.2h6.1v-6.1h-6.1v6.1zm0 13.1h6.1v-6.1h-6.1v6.1zm0 13.2h6.1v-6.1h-6.1v6.1zm0 13.2h6.1v-6.1h-6.1v6.1zm0 13.2h6.1v-6.1h-6.1v6.1zm0 13.2h6.1v-6.1h-6.1v6.1zm0 13.1h6.1v-6.1h-6.1v6.1zm0 13.2h6.1v-6.1h-6.1v6.1zm0 13.2h6.1v-6.1h-6.1v6.1zm0 13.2h6.1V180h-6.1v6.1zm0 13.1h6.1v-6.1h-6.1v6.1zm0 13.2h6.1v-6.1h-6.1v6.1zm0 13.2h6.1v-6.1h-6.1v6.1zm0 13.2h6.1v-6.1h-6.1v6.1zm0 13.1h6.1v-6.1h-6.1v6.1zm0 13.2h6.1V259h-6.1v6.1zm0 13.2h6.1v-6.1h-6.1v6.1zm0 13.2h6.1v-6.1h-6.1v6.1zm0 13.2h6.1v-6.1h-6.1v6.1zm0 13.1h6.1v-6.1h-6.1v6.1zm0 13.2h6.1v-6.1h-6.1v6.1zm0 13.2h6.1v-6.1h-6.1v6.1zm0 13.2h6.1v-6.1h-6.1v6.1zm0 13.1h6.1v-6.1h-6.1v6.1zm0 13.2h6.1v-6.1h-6.1v6.1zm0 13.2h6.1v-6.1h-6.1v6.1zm0 13.2h6.1V404h-6.1v6.1zm-13.2-553.5h6.1v-6.1h-6.1v6.1zm0 13.2h6.1v-6.1h-6.1v6.1zm0 13.2h6.1v-6.1h-6.1v6.1zm0 13.2h6.1v-6.1h-6.1v6.1zm0 13.1h6.1v-6.1h-6.1v6.1zm0 13.2h6.1v-6.1h-6.1v6.1zm0 13.2h6.1v-6.1h-6.1v6.1zm0 13.2h6.1v-6.1h-6.1v6.1zm0 13.2h6.1V-44h-6.1v6.1zm0 13.1h6.1v-6.1h-6.1v6.1zm0 13.2h6.1v-6.1h-6.1v6.1zm0 13.2h6.1v-6.1h-6.1v6.1zm0 13.2h6.1V8.7h-6.1v6.1zm0 13.1h6.1v-6.1h-6.1v6.1zm0 13.2h6.1V35h-6.1v6.1zm0 13.2h6.1v-6.1h-6.1v6.1zm0 13.2h6.1v-6.1h-6.1v6.1zm0 13.1h6.1v-6.1h-6.1v6.1zm0 13.2h6.1v-6.1h-6.1v6.1zm0 13.2h6.1v-6.1h-6.1v6.1zm0 13.2h6.1v-6.1h-6.1v6.1zm0 13.2h6.1v-6.1h-6.1v6.1zm0 13.1h6.1v-6.1h-6.1v6.1zm0 13.2h6.1v-6.1h-6.1v6.1zm0 13.2h6.1v-6.1h-6.1v6.1zm0 13.2h6.1V180h-6.1v6.1zm0 13.1h6.1v-6.1h-6.1v6.1zm0 13.2h6.1v-6.1h-6.1v6.1zm0 13.2h6.1v-6.1h-6.1v6.1zm0 13.2h6.1v-6.1h-6.1v6.1zm0 13.1h6.1v-6.1h-6.1v6.1zm0 13.2h6.1V259h-6.1v6.1zm0 13.2h6.1v-6.1h-6.1v6.1zm0 13.2h6.1v-6.1h-6.1v6.1zm0 13.2h6.1v-6.1h-6.1v6.1zm0 13.1h6.1v-6.1h-6.1v6.1zm0 13.2h6.1v-6.1h-6.1v6.1zm0 13.2h6.1v-6.1h-6.1v6.1zm0 13.2h6.1v-6.1h-6.1v6.1zm0 13.1h6.1v-6.1h-6.1v6.1zm0 13.2h6.1v-6.1h-6.1v6.1zm0 13.2h6.1v-6.1h-6.1v6.1zm0 13.2h6.1V404h-6.1v6.1zm-13.2-553.5h6.1v-6.1h-6.1v6.1zm0 13.2h6.1v-6.1h-6.1v6.1zm0 13.2h6.1v-6.1h-6.1v6.1zm0 13.2h6.1v-6.1h-6.1v6.1zm0 13.1h6.1v-6.1h-6.1v6.1zm0 13.2h6.1v-6.1h-6.1v6.1zm0 13.2h6.1v-6.1h-6.1v6.1zm0 13.2h6.1v-6.1h-6.1v6.1zm0 13.2h6.1V-44h-6.1v6.1zm0 13.1h6.1v-6.1h-6.1v6.1zm0 13.2h6.1v-6.1h-6.1v6.1zm0 13.2h6.1v-6.1h-6.1v6.1zm0 13.2h6.1V8.7h-6.1v6.1zm0 13.1h6.1v-6.1h-6.1v6.1zm0 13.2h6.1V35h-6.1v6.1zm0 13.2h6.1v-6.1h-6.1v6.1zm0 13.2h6.1v-6.1h-6.1v6.1zm0 13.1h6.1v-6.1h-6.1v6.1zm0 13.2h6.1v-6.1h-6.1v6.1zm0 13.2h6.1v-6.1h-6.1v6.1zm0 13.2h6.1v-6.1h-6.1v6.1zm0 13.2h6.1v-6.1h-6.1v6.1zm0 13.1h6.1v-6.1h-6.1v6.1zm0 13.2h6.1v-6.1h-6.1v6.1zm0 13.2h6.1v-6.1h-6.1v6.1zm0 13.2h6.1V180h-6.1v6.1zm0 13.1h6.1v-6.1h-6.1v6.1zm0 13.2h6.1v-6.1h-6.1v6.1zm0 13.2h6.1v-6.1h-6.1v6.1zm0 13.2h6.1v-6.1h-6.1v6.1zm0 13.1h6.1v-6.1h-6.1v6.1zm0 13.2h6.1V259h-6.1v6.1zm0 13.2h6.1v-6.1h-6.1v6.1zm0 13.2h6.1v-6.1h-6.1v6.1zm0 13.2h6.1v-6.1h-6.1v6.1zm0 13.1h6.1v-6.1h-6.1v6.1zm0 13.2h6.1v-6.1h-6.1v6.1zm0 13.2h6.1v-6.1h-6.1v6.1zm0 13.2h6.1v-6.1h-6.1v6.1zm0 13.1h6.1v-6.1h-6.1v6.1zm0 13.2h6.1v-6.1h-6.1v6.1zm0 13.2h6.1v-6.1h-6.1v6.1zm0 13.2h6.1V404h-6.1v6.1z" opacity="0.102"/>
  <path fill="#FFFFFF" d="M1193 586.3h5.3v1.8h-5.3v5.5h-1.8v-5.5h-5.3v-1.8h5.3v-5.6h1.8v5.6zM389 585.3h5.3v1.8H389v5.5h-1.8v-5.5h-5.3v-1.8h5.3v-5.6h1.8v5.6zM742.3 120.9h7.3v2.5h-7.3v7.6h-2.5v-7.6h-7.3v-2.5h7.3v-7.6h2.5v7.6zM1585.3 357.9h7.3v2.5h-7.3v7.6h-2.5v-7.6h-7.3v-2.5h7.3v-7.6h2.5v7.6zM544.3 394.9h7.3v2.5h-7.3v7.6h-2.5v-7.6h-7.3v-2.5h7.3v-7.6h2.5v7.6zM1367.3 486.9h7.3v2.5h-7.3v7.6h-2.5v-7.6h-7.3v-2.5h7.3v-7.6h2.5v7.6z"/>
  <path fill="#FFFFFF" d="M1473.8 359.7h5.9v2h-5.9v6.1h-2v-6.1h-5.8v-2h5.8v-6.1h2v6.1zM1705.5 294.1h9.1v3h-9.1v9.4h-3.1v-9.4h-9v-3h9v-9.4h3.1v9.4zM1414.7 622.2h9.1v3h-9.1v9.4h-3.1v-9.4h-9v-3h9v-9.4h3.1v9.4z" opacity="0.302"/>
  <path fill="#AFD7FD" d="M1407.4 489.9h-4.9c.3-.3.6-.8.7-1.3.1-.6 0-1.2-.4-1.7-.7-.9-1.5-1.1-2.1-1.1-.9.1-1.9.7-2.1 1.1-.1.3-.9 1.6-1.3 2.3-.4-.7-1.1-2-1.3-2.3-.2-.4-1.1-1-2.1-1.1-.6 0-1.4.1-2.1 1.1-.4.5-.5 1.1-.4 1.7.1.5.4.9.7 1.3h-5c-.7 0-1.3.6-1.3 1.3v2.3c0 .7.6 1.3 1.3 1.3h.2V507.2c0 .6.5 1.1 1.1 1.1h17.7c.6 0 1.1-.5 1.1-1.1V495v-.2h.2c.7 0 1.3-.6 1.3-1.3v-2.3c0-.7-.6-1.3-1.3-1.3zm-8-2.5c.1-.1.7-.6 1.4-.6.5 0 .9.2 1.2.7.2.3.3.7.2 1-.1.6-.9 1.2-1.2 1.5h-3.1c.4-.6 1.3-2.2 1.5-2.6zm-6.8.1c.3-.5.7-.7 1.2-.7.7 0 1.3.5 1.4.6.2.3 1.1 1.9 1.4 2.5h-3.1c-.4-.2-1.1-.8-1.2-1.5 0-.3.1-.6.3-.9zm13.7 19.7c0 .1-.1.2-.2.2h-17.7c-.1 0-.2-.1-.2-.2V495c0-.1.1-.2.2-.2h17.7c.1 0 .2.1.2.2v12.2zm1.5-13.7c0 .2-.2.4-.4.4h-20.2c-.2 0-.4-.2-.4-.4v-2.3c0-.2.2-.4.4-.4h20.2c.2 0 .4.2.4.4v2.3z" opacity="0.302"/>
  <path fill="#AFD7FD" d="M517 96.7h-6.9c.4-.5.8-1.1 1-1.8.2-.8 0-1.6-.5-2.4-.9-1.3-2.1-1.5-2.9-1.5-1.3.1-2.6 1-2.9 1.5-.2.4-1.3 2.2-1.8 3.2-.5-.9-1.6-2.8-1.8-3.2-.3-.6-1.6-1.5-2.9-1.5-.8-.1-2 .2-2.9 1.5-.5.8-.7 1.6-.5 2.4.2.7.6 1.3 1 1.8H489c-1 0-1.8.8-1.8 1.8v3.2c0 1 .8 1.8 1.8 1.8h.2v17.3c0 .8.7 1.5 1.5 1.5h24.7c.8 0 1.5-.7 1.5-1.5v-17.1-.2h.2c1 0 1.8-.8 1.8-1.8v-3.2c-.2-1-1-1.8-1.9-1.8zm-11.2-3.5c.1-.2 1-.9 2-.9.7 0 1.2.3 1.7 1 .3.5.4.9.3 1.4-.2.9-1.2 1.7-1.7 2h-4.3c.5-.8 1.8-3 2-3.5zm-9.5.1c.5-.7 1-1 1.7-1 1 0 1.8.7 2 .9.3.5 1.5 2.7 2 3.5h-4.3c-.5-.3-1.5-1.1-1.7-2-.1-.5 0-1 .3-1.4zm19.2 27.5c0 .1-.1.2-.2.2h-24.7c-.1 0-.2-.1-.2-.2v-17.1c0-.1.1-.2.2-.2h24.7c.1 0 .2.1.2.2v17.1zm2-19.1c0 .3-.2.5-.5.5h-28.1c-.3 0-.5-.2-.5-.5v-3.2c0-.3.2-.5.5-.5H517c.3 0 .5.2.5.5v3.2z" opacity="0.102"/>
  <path fill="#AFD7FD" d="M1542.5 165.4c-1.2 0-2.3.2-3.4.7-2.1-4.4-6.5-7.2-11.4-7.2-.9 0-1.7.1-2.6.3-.5.1-1.1.3-1.6.4-.7.2-1.3.5-1.9.9l-.4.2c-1.8 1.1-3.3 2.6-4.4 4.5l-.3.6c-.2-.1-.5-.1-.7-.2h-.1c-1.6-.3-3.4-.1-4.9.5l-.1.1c-.7.3-1.3.6-1.9 1.1-.4.3-.9.7-1.3 1.1-1.6 1.7-2.5 3.9-2.5 6.2 0 5 4.1 9.1 9.1 9.1h28.4c5 0 9.1-4.1 9.1-9.1s-4.1-9.2-9.1-9.2zm0 16.5H1514c-4.1 0-7.5-3.4-7.5-7.5 0-1.9.7-3.7 2-5.1.3-.3.7-.6 1-.9.5-.3 1-.6 1.5-.8h.1c1.3-.5 2.8-.7 4.3-.4h.1c.4.1.7.2 1.1.3l.7.3.3-.7c.2-.4.3-.7.5-1 1-1.7 2.5-3.1 4.2-4.1l.2-.1c.5-.3 1-.5 1.5-.7.5-.2.9-.3 1.4-.4.7-.2 1.5-.2 2.3-.2 4.6 0 8.6 2.7 10.3 6.9l.3.8.8-.4c1-.5 2.2-.8 3.5-.8 4.1 0 7.5 3.4 7.5 7.5s-3.5 7.3-7.6 7.3z" opacity="0.2"/>
  <path fill="#FFFFFF" d="M1328.8 312.7h5.9v2h-5.9v6.1h-2v-6.1h-5.8v-2h5.8v-6.1h2v6.1z" opacity="0.302"/>
  <path fill="#FFFFFF" d="M362.5 300.1h9.1v3h-9.1v9.4h-3.1v-9.4h-9v-3h9v-9.4h3.1v9.4z"/>
  <path fill="#AFD7FD" d="M1969.7 176.8c-7.5 0-15 1.5-21.8 4.2-13.3-28-41.4-45.8-72.8-45.8-5.6 0-11.1.6-16.4 1.7-3.4.7-6.9 1.7-10.4 2.9-4.3 1.5-8.4 3.4-12.3 5.5l-2.6 1.4v.1c-11.6 7-21.2 16.8-28 28.5-.7 1.2-1.3 2.4-1.9 3.6-1.5-.4-3-.8-4.5-1.1l-.4-.1c-10.5-2-21.6-.9-31.6 3l-1 .4c-4.3 1.8-8.4 4.1-12.2 6.8-2.9 2.1-5.5 4.4-8 7-10.2 10.8-15.8 24.9-15.8 39.7 0 31.9 26 57.9 58 57.9h181.7c32 0 58-26 58-57.9s-26-57.8-58-57.8zm0 105.7H1788c-26.5 0-48-21.5-48-47.9 0-12.3 4.6-23.9 13.1-32.8 2-2.1 4.3-4.1 6.6-5.8 2.9-2.1 6.1-3.9 9.4-5.4l.7-.3c8.5-3.5 18.1-4.5 27.2-2.7l.5.1c2.3.5 4.6 1.1 6.8 1.9l4.4 1.6 1.9-4.3c1-2.2 2.2-4.5 3.4-6.7 6.4-11 15.7-20.1 26.8-26.2l1.1-.6c3.1-1.6 6.3-3.1 9.7-4.2 3-1.1 6-1.9 9.1-2.5 4.7-1 9.5-1.5 14.4-1.5 29.1 0 54.8 17.4 65.6 44.3l2.1 5.1 4.9-2.6c6.7-3.5 14.3-5.3 22.1-5.3 26.5 0 48 21.5 48 47.9s-21.6 47.9-48.1 47.9zM230.9 585c-2.6 0-5.1.5-7.5 1.4-4.6-9.6-14.1-15.6-24.9-15.6-1.9 0-3.8.2-5.6.6-1.2.2-2.4.6-3.5 1-1.5.5-2.9 1.1-4.2 1.9l-.9.5c-4 2.4-7.2 5.7-9.6 9.7-.2.4-.5.8-.7 1.2-.5-.1-1-.3-1.5-.4h-.1c-3.6-.7-7.4-.3-10.8 1l-.3.1c-1.5.6-2.9 1.4-4.2 2.3-1 .7-1.9 1.5-2.7 2.4-3.5 3.7-5.4 8.5-5.4 13.6 0 10.9 8.9 19.8 19.8 19.8h62.1c10.9 0 19.8-8.9 19.8-19.8s-8.9-19.7-19.8-19.7zm0 36.1h-62.1c-9 0-16.4-7.3-16.4-16.4 0-4.2 1.6-8.2 4.5-11.2.7-.7 1.5-1.4 2.3-2 1-.7 2.1-1.3 3.2-1.8l.2-.1c2.9-1.2 6.2-1.5 9.3-.9h.2c.8.2 1.6.4 2.3.7l1.5.6.6-1.5c.3-.8.7-1.5 1.2-2.3 2.2-3.8 5.4-6.9 9.2-9l.4-.2c1.1-.6 2.2-1.1 3.3-1.5 1-.4 2.1-.6 3.1-.9 1.6-.3 3.3-.5 4.9-.5 9.9 0 18.7 5.9 22.4 15.1l.7 1.8 1.7-.9c2.3-1.2 4.9-1.8 7.5-1.8 9 0 16.4 7.3 16.4 16.4s-7.4 16.4-16.4 16.4z"/>
  <path fill="#AFD7FD" d="M506 272.1c-1 0-2 .2-3 .6-1.8-3.8-5.6-6.2-9.8-6.2-.8 0-1.5.1-2.2.2-.5.1-.9.2-1.4.4-.6.2-1.1.5-1.7.7l-.3.2c-1.6.9-2.9 2.3-3.8 3.9-.1.2-.2.3-.3.5-.2-.1-.4-.1-.6-.1h-.1c-1.4-.3-2.9-.1-4.3.4h-.1c-.6.2-1.1.6-1.6.9-.4.3-.8.6-1.1 1-1.4 1.5-2.1 3.4-2.1 5.4 0 4.3 3.5 7.8 7.8 7.8H506c4.3 0 7.8-3.5 7.8-7.8.1-4.4-3.4-7.9-7.8-7.9zm0 14.3h-24.6c-3.6 0-6.5-2.9-6.5-6.5 0-1.7.6-3.2 1.8-4.4.3-.3.6-.6.9-.8.4-.3.8-.5 1.3-.7h.1c1.2-.5 2.5-.6 3.7-.4h.1c.3.1.6.1.9.3l.6.2.3-.6c.1-.3.3-.6.5-.9.9-1.5 2.1-2.7 3.6-3.5l.1-.1c.4-.2.9-.4 1.3-.6.4-.1.8-.3 1.2-.3.6-.1 1.3-.2 2-.2 3.9 0 7.4 2.4 8.9 6l.3.7.7-.3c.9-.5 1.9-.7 3-.7 3.6 0 6.5 2.9 6.5 6.5s-3.1 6.3-6.7 6.3zm96.4 339.2c-1.1 0-2.2.2-3.2.6-2-4.1-6.1-6.7-10.8-6.7-.8 0-1.6.1-2.4.2-.5.1-1 .2-1.5.4-.6.2-1.2.5-1.8.8l-.4.2c-1.7 1-3.1 2.5-4.1 4.2-.1.2-.2.3-.3.5-.2-.1-.4-.1-.7-.2h-.1c-1.6-.3-3.2-.1-4.7.4l-.1.1c-.6.3-1.2.6-1.8 1-.4.3-.8.7-1.2 1-1.5 1.6-2.3 3.6-2.3 5.8 0 4.7 3.8 8.5 8.6 8.5h26.9c4.7 0 8.6-3.8 8.6-8.5-.1-4.5-3.9-8.3-8.7-8.3zm0 15.4h-26.9c-3.9 0-7.1-3.1-7.1-7 0-1.8.7-3.5 1.9-4.8.3-.3.6-.6 1-.9.4-.3.9-.6 1.4-.8h.1c1.3-.5 2.7-.7 4-.4h.1c.3.1.7.2 1 .3l.6.2.3-.6c.1-.3.3-.7.5-1 .9-1.6 2.3-2.9 4-3.8l.2-.1c.5-.2.9-.4 1.4-.6.4-.2.9-.3 1.3-.4.7-.1 1.4-.2 2.1-.2 4.3 0 8.1 2.5 9.7 6.5l.3.7.7-.4c1-.5 2.1-.8 3.3-.8 3.9 0 7.1 3.1 7.1 7s-3.1 7.1-7 7.1z" opacity="0.302"/>
</svg>