<svg xmlns="http://www.w3.org/2000/svg" x="0px" y="0px" version="1.0" viewBox="0 0 375 362">
  <defs/>
  <path fill="#004991" d="M0 0h375v362H0z"/>
  <g fill="#004991">
    <path d="M99.1 39.3c-1.4 0-2.5.5-3.3 1.6s-1.2 2.6-1.2 4.5c0 4 1.5 6 4.5 6 1.3 0 2.8-.3 4.6-.9v3.2c-1.5.6-3.1.9-4.9.9-2.6 0-4.6-.8-6-2.4-1.4-1.6-2.1-3.8-2.1-6.8 0-1.9.3-3.5 1-4.9.7-1.4 1.6-2.5 2.9-3.2 1.3-.7 2.7-1.1 4.4-1.1 1.7 0 3.5.4 5.2 1.3l-1.2 3.1c-.7-.3-1.3-.6-2-.8s-1.2-.5-1.9-.5zM123.6 54.3h-3.8v-7.7h-7.1v7.7H109V36.5h3.8v7h7.1v-7h3.8v17.8zM145.8 45.4c0 3-.7 5.2-2.2 6.8s-3.6 2.4-6.3 2.4-4.8-.8-6.3-2.4-2.2-3.9-2.2-6.8c0-3 .7-5.2 2.2-6.8 1.5-1.6 3.6-2.4 6.3-2.4 2.7 0 4.8.8 6.3 2.4 1.5 1.5 2.2 3.8 2.2 6.8zm-13 0c0 2 .4 3.5 1.1 4.5.8 1 1.9 1.5 3.4 1.5 3 0 4.5-2 4.5-6s-1.5-6-4.5-6c-1.5 0-2.6.5-3.4 1.5-.8 1-1.1 2.5-1.1 4.5zM167.2 45.4c0 3-.7 5.2-2.2 6.8s-3.6 2.4-6.3 2.4-4.8-.8-6.3-2.4-2.2-3.9-2.2-6.8c0-3 .7-5.2 2.2-6.8 1.5-1.6 3.6-2.4 6.3-2.4 2.7 0 4.8.8 6.3 2.4 1.4 1.5 2.2 3.8 2.2 6.8zm-13 0c0 2 .4 3.5 1.1 4.5.8 1 1.9 1.5 3.4 1.5 3 0 4.5-2 4.5-6s-1.5-6-4.5-6c-1.5 0-2.6.5-3.4 1.5-.8 1-1.1 2.5-1.1 4.5zM182.9 49.3c0 1.6-.6 2.9-1.7 3.8-1.2.9-2.8 1.4-4.8 1.4-1.9 0-3.6-.4-5.1-1.1V50c1.2.5 2.2.9 3.1 1.1s1.6.3 2.3.3c.8 0 1.5-.2 1.9-.5s.7-.8.7-1.4c0-.3-.1-.7-.3-.9s-.5-.5-.9-.8c-.4-.3-1.1-.7-2.3-1.2-1.1-.5-1.9-1-2.5-1.5s-1-1-1.3-1.6c-.3-.6-.5-1.4-.5-2.2 0-1.6.5-2.8 1.6-3.7s2.5-1.4 4.4-1.4c.9 0 1.8.1 2.7.3.8.2 1.7.5 2.6.9l-1.2 2.9c-1-.4-1.7-.7-2.4-.8-.6-.2-1.2-.2-1.8-.2-.7 0-1.3.2-1.6.5-.4.3-.6.8-.6 1.3 0 .3.1.6.2.9.2.2.4.5.7.7.3.2 1.1.6 2.4 1.3 1.7.8 2.8 1.6 3.4 2.4.7.8 1 1.8 1 2.9zM197.9 54.3h-10.3V36.5h10.3v3.1h-6.5v3.9h6v3.1h-6v4.6h6.5v3.1zM216.7 43.8l3.7-7.3h4.1l-5.9 10.9v6.9h-3.8v-6.8l-5.9-11h4.1l3.7 7.3zM244.4 45.4c0 3-.7 5.2-2.2 6.8s-3.6 2.4-6.3 2.4-4.8-.8-6.3-2.4-2.2-3.9-2.2-6.8c0-3 .7-5.2 2.2-6.8 1.5-1.6 3.6-2.4 6.3-2.4 2.7 0 4.8.8 6.3 2.4 1.5 1.5 2.2 3.8 2.2 6.8zm-13 0c0 2 .4 3.5 1.1 4.5.8 1 1.9 1.5 3.4 1.5 3 0 4.5-2 4.5-6s-1.5-6-4.5-6c-1.5 0-2.6.5-3.4 1.5-.7 1-1.1 2.5-1.1 4.5zM264.2 36.5V48c0 1.3-.3 2.5-.9 3.5-.6 1-1.4 1.8-2.6 2.3-1.1.5-2.4.8-4 .8-2.3 0-4.1-.6-5.3-1.8-1.3-1.2-1.9-2.8-1.9-4.8V36.5h3.8v10.9c0 1.4.3 2.4.8 3 .6.6 1.5 1 2.7 1 1.2 0 2.1-.3 2.7-1 .6-.6.8-1.7.8-3V36.5h3.9zM273.8 47.5v6.8H270V36.5h5.2c2.4 0 4.2.4 5.4 1.3 1.2.9 1.7 2.2 1.7 4 0 1-.3 2-.9 2.8-.6.8-1.4 1.5-2.5 1.9 2.7 4 4.4 6.6 5.2 7.8h-4.2l-4.3-6.8h-1.8zm0-3.1h1.2c1.2 0 2.1-.2 2.6-.6.6-.4.9-1 .9-1.9 0-.8-.3-1.4-.9-1.8-.6-.4-1.5-.5-2.7-.5h-1.1v4.8zM85.6 73.5c0 1.9-.6 3.4-1.8 4.4s-2.9 1.5-5.1 1.5h-1.6v6.3h-3.8V67.9H79c2.2 0 3.8.5 4.9 1.4 1.2 1 1.7 2.4 1.7 4.2zm-8.5 2.8h1.2c1.2 0 2-.2 2.6-.7s.9-1.1.9-2c0-.9-.2-1.5-.7-2-.5-.4-1.2-.6-2.3-.6h-1.7v5.3zM105 67.9v11.5c0 1.3-.3 2.5-.9 3.5-.6 1-1.4 1.8-2.6 2.3s-2.4.8-4 .8c-2.3 0-4.1-.6-5.3-1.8s-1.9-2.8-1.9-4.8V67.9h3.8v10.9c0 1.4.3 2.4.8 3 .6.6 1.5 1 2.7 1 1.2 0 2.1-.3 2.7-1 .6-.6.8-1.7.8-3V67.9h3.9zM114.6 85.8h-3.7V67.9h10.2V71h-6.5v4.6h6.1v3.1h-6.1v7.1zM129.8 85.8h-3.7V67.9h10.2V71h-6.5v4.6h6.1v3.1h-6.1v7.1zM146.9 75.3l3.7-7.3h4.1l-5.9 10.9v6.9H145V79l-5.9-11h4.1l3.7 7.3zM174 85.8l-4.3-14h-.1c.2 2.8.2 4.7.2 5.7v8.3h-3.4V67.9h5.2l4.2 13.6h.1l4.5-13.6h5.2v17.8H182v-8.4-1.4c0-.5.1-1.9.2-4.2h-.1l-4.6 14H174zM202.4 85.8l-1.3-4.2h-6.5l-1.3 4.2h-4.1l6.3-17.9h4.6l6.3 17.9h-4zm-2.2-7.4c-1.2-3.8-1.9-6-2-6.5-.2-.5-.3-.9-.3-1.2-.3 1-1 3.6-2.3 7.7h4.6zM217.1 85.8h-3.8V71.1h-4.8V68H222v3.1h-4.8v14.7zM233.1 85.8h-3.8V71.1h-4.8V68H238v3.1h-4.8v14.7zM246 78.9v6.8h-3.8V67.9h5.2c2.4 0 4.2.4 5.4 1.3 1.2.9 1.7 2.2 1.7 4 0 1-.3 2-.9 2.8-.6.8-1.4 1.5-2.5 1.9 2.7 4 4.4 6.6 5.2 7.8h-4.2l-4.3-6.8H246zm0-3h1.2c1.2 0 2.1-.2 2.6-.6.6-.4.9-1 .9-1.9 0-.8-.3-1.4-.9-1.8-.6-.4-1.5-.5-2.7-.5H246v4.8zM270.5 85.8h-10.3V67.9h10.3V71H264v4h6v3.1h-6v4.6h6.5v3.1zM286.2 80.8c0 1.6-.6 2.9-1.7 3.8-1.2.9-2.8 1.4-4.8 1.4-1.9 0-3.6-.4-5.1-1.1v-3.5c1.2.5 2.2.9 3.1 1.1s1.6.3 2.3.3c.8 0 1.5-.2 1.9-.5s.7-.8.7-1.4c0-.3-.1-.7-.3-.9-.2-.3-.5-.5-.9-.8-.4-.3-1.1-.7-2.3-1.2-1.1-.5-1.9-1-2.5-1.5-.5-.5-1-1-1.3-1.6-.3-.6-.5-1.4-.5-2.2 0-1.6.5-2.8 1.6-3.7s2.5-1.4 4.4-1.4c.9 0 1.8.1 2.7.3.8.2 1.7.5 2.6.9l-1.2 2.9c-1-.4-1.7-.7-2.4-.8-.6-.2-1.2-.2-1.8-.2-.7 0-1.3.2-1.6.5-.4.3-.6.8-.6 1.3 0 .3.1.6.2.9.2.2.4.5.7.7.3.2 1.1.6 2.4 1.3 1.7.8 2.8 1.6 3.4 2.4.7.9 1 1.9 1 3zM301.5 80.8c0 1.6-.6 2.9-1.7 3.8-1.2.9-2.8 1.4-4.8 1.4-1.9 0-3.6-.4-5.1-1.1v-3.5c1.2.5 2.2.9 3.1 1.1s1.6.3 2.3.3c.8 0 1.5-.2 1.9-.5s.7-.8.7-1.4c0-.3-.1-.7-.3-.9-.2-.3-.5-.5-.9-.8-.4-.3-1.1-.7-2.3-1.2-1.1-.5-1.9-1-2.5-1.5-.5-.5-1-1-1.3-1.6-.3-.6-.5-1.4-.5-2.2 0-1.6.5-2.8 1.6-3.7s2.5-1.4 4.4-1.4c.9 0 1.8.1 2.7.3.8.2 1.7.5 2.6.9l-1.2 2.9c-1-.4-1.7-.7-2.4-.8-.6-.2-1.2-.2-1.8-.2-.7 0-1.3.2-1.6.5-.4.3-.6.8-.6 1.3 0 .3.1.6.2.9.2.2.4.5.7.7.3.2 1.1.6 2.4 1.3 1.7.8 2.8 1.6 3.4 2.4.7.9 1 1.9 1 3z"/>
  </g>
  <path fill="#FFFFFF" d="M329.2 180.7v7.9h7.6v2h-7.6v8H327v-8h-7.6v-2h7.6v-7.9h2.2z"/>
  <path fill="#FFFFFF" d="M298.3 31.7c2.6 0 4.6 2.1 4.6 4.6 0 2.6-2.1 4.6-4.6 4.6s-4.6-2.1-4.6-4.6c-.1-2.5 2-4.6 4.6-4.6m0-2c-3.7 0-6.6 3-6.6 6.6 0 3.7 3 6.6 6.6 6.6 3.7 0 6.6-3 6.6-6.6 0-3.6-3-6.6-6.6-6.6zM357.3 331.7c2.6 0 4.6 2.1 4.6 4.6 0 2.6-2.1 4.6-4.6 4.6-2.6 0-4.6-2.1-4.6-4.6-.1-2.5 2-4.6 4.6-4.6m0-2c-3.7 0-6.6 3-6.6 6.6 0 3.7 3 6.6 6.6 6.6 3.7 0 6.6-3 6.6-6.6 0-3.6-3-6.6-6.6-6.6z" opacity="0.302"/>
  <path fill="#AFD7FD" d="M36.2 301.2H32c.3-.3.5-.6.6-1.1.1-.5 0-1-.3-1.4-.6-.8-1.3-.9-1.8-.9-.8.1-1.6.6-1.8.9-.1.2-.8 1.4-1.1 1.9-.3-.6-1-1.7-1.1-1.9-.2-.3-1-.9-1.8-.9-.5 0-1.2.1-1.8.9-.3.5-.4.9-.3 1.4.1.4.3.8.6 1.1H19c-.6 0-1.1.5-1.1 1.1v2c0 .6.5 1.1 1.1 1.1h.1V316c0 .5.4.9.9.9h15c.5 0 .9-.4.9-.9v-10.4-.2h.1c.6 0 1.1-.5 1.1-1.1v-2c.1-.6-.3-1.1-.9-1.1zm-6.8-2.1c.1-.1.6-.5 1.2-.5.4 0 .7.2 1 .6.2.3.3.6.2.8-.1.6-.7 1-1 1.2h-2.6c.3-.5 1-1.8 1.2-2.1zm-5.8 0c.3-.4.6-.6 1-.6.6 0 1.1.4 1.2.5.2.3.9 1.6 1.2 2.1h-2.6c-.3-.2-.9-.7-1-1.2-.1-.2 0-.5.2-.8zm11.7 16.7c0 .1-.1.1-.1.1h-15c-.1 0-.1-.1-.1-.1v-10.4c0-.1.1-.2.1-.2h15c.1 0 .1.1.1.2v10.4zm1.2-11.6c0 .2-.1.3-.3.3H19.1c-.2 0-.3-.1-.3-.3v-2c0-.2.1-.3.3-.3h17.1c.2 0 .3.1.3.3v2z" opacity="0.302"/>
  <path fill="#FFFFFF" d="M147.8 288.3c1.9 0 3.5 1.6 3.5 3.5s-1.6 3.5-3.5 3.5-3.5-1.6-3.5-3.5 1.6-3.5 3.5-3.5m0-2c-3 0-5.5 2.5-5.5 5.5s2.5 5.5 5.5 5.5 5.5-2.5 5.5-5.5-2.4-5.5-5.5-5.5zM371.5-.7V2h2.7V-.7h-2.7zm0 8.5h2.7V5.1h-2.7v2.7zm0 5.8h2.7v-2.7h-2.7v2.7zm0 5.8h2.7v-2.7h-2.7v2.7zm0 5.8h2.7v-2.7h-2.7v2.7zm0 5.8h2.7v-2.7h-2.7V31zm0 5.8h2.7v-2.7h-2.7v2.7zm0 5.9h2.7V40h-2.7v2.7zm0 5.8h2.7v-2.7h-2.7v2.7zm0 5.8h2.7v-2.7h-2.7v2.7zm0 5.8h2.7v-2.7h-2.7v2.7zm0 5.8h2.7v-2.7h-2.7v2.7zm0 5.9h2.7v-2.7h-2.7v2.7zm0 5.8h2.7v-2.7h-2.7v2.7zm0 5.8h2.7v-2.7h-2.7v2.7zm0 5.8h2.7v-2.7h-2.7v2.7zm0 5.8h2.7v-2.7h-2.7V95zm0 5.8h2.7v-2.7h-2.7v2.7zm0 5.9h2.7V104h-2.7v2.7zm0 5.8h2.7v-2.7h-2.7v2.7zm0 5.8h2.7v-2.7h-2.7v2.7zm0 5.8h2.7v-2.7h-2.7v2.7zm0 5.8h2.7v-2.7h-2.7v2.7zm0 5.8h2.7V133h-2.7v2.7zm0 5.9h2.7v-2.7h-2.7v2.7zm0 5.8h2.7v-2.7h-2.7v2.7zm0 5.8h2.7v-2.7h-2.7v2.7zm0 5.8h2.7v-2.7h-2.7v2.7zm0 5.8h2.7v-2.7h-2.7v2.7zm0 5.9h2.7V168h-2.7v2.7zm0 5.8h2.7v-2.7h-2.7v2.7zm0 5.8h2.7v-2.7h-2.7v2.7zm0 5.8h2.7v-2.7h-2.7v2.7zm0 5.8h2.7v-2.7h-2.7v2.7zm0 5.8h2.7V197h-2.7v2.7zm0 5.9h2.7v-2.7h-2.7v2.7zm0 5.8h2.7v-2.7h-2.7v2.7zm0 5.8h2.7v-2.7h-2.7v2.7zm0 5.8h2.7v-2.7h-2.7v2.7zm0 5.8h2.7v-2.7h-2.7v2.7zm0 5.9h2.7V232h-2.7v2.7zm0 5.8h2.7v-2.7h-2.7v2.7zm0 5.8h2.7v-2.7h-2.7v2.7zM365.7 1.9h2.7V-.8h-2.7v2.7zm0 5.9h2.7V5.1h-2.7v2.7zm0 5.8h2.7v-2.7h-2.7v2.7zm0 5.8h2.7v-2.7h-2.7v2.7zm0 5.8h2.7v-2.7h-2.7v2.7zm0 5.8h2.7v-2.7h-2.7V31zm0 5.8h2.7v-2.7h-2.7v2.7zm0 5.9h2.7V40h-2.7v2.7zm0 5.8h2.7v-2.7h-2.7v2.7zm0 5.8h2.7v-2.7h-2.7v2.7zm0 5.8h2.7v-2.7h-2.7v2.7zm0 5.8h2.7v-2.7h-2.7v2.7zm0 5.9h2.7v-2.7h-2.7v2.7zm0 5.8h2.7v-2.7h-2.7v2.7zm0 5.8h2.7v-2.7h-2.7v2.7zm0 5.8h2.7v-2.7h-2.7v2.7zm0 5.8h2.7v-2.7h-2.7V95zm0 5.8h2.7v-2.7h-2.7v2.7zm0 5.9h2.7V104h-2.7v2.7zm0 5.8h2.7v-2.7h-2.7v2.7zm0 5.8h2.7v-2.7h-2.7v2.7zm0 5.8h2.7v-2.7h-2.7v2.7zm0 5.8h2.7v-2.7h-2.7v2.7zm0 5.8h2.7V133h-2.7v2.7zm0 5.9h2.7v-2.7h-2.7v2.7zm0 5.8h2.7v-2.7h-2.7v2.7zm0 5.8h2.7v-2.7h-2.7v2.7zm0 5.8h2.7v-2.7h-2.7v2.7zm0 5.8h2.7v-2.7h-2.7v2.7zm0 5.9h2.7V168h-2.7v2.7zm0 5.8h2.7v-2.7h-2.7v2.7zm0 5.8h2.7v-2.7h-2.7v2.7zm0 5.8h2.7v-2.7h-2.7v2.7zm0 5.8h2.7v-2.7h-2.7v2.7zm0 5.8h2.7V197h-2.7v2.7zm0 5.9h2.7v-2.7h-2.7v2.7zm0 5.8h2.7v-2.7h-2.7v2.7zm0 5.8h2.7v-2.7h-2.7v2.7zm0 5.8h2.7v-2.7h-2.7v2.7zm0 5.8h2.7v-2.7h-2.7v2.7zm0 5.9h2.7V232h-2.7v2.7zm0 5.8h2.7v-2.7h-2.7v2.7zm0 5.8h2.7v-2.7h-2.7v2.7zM359.8 1.9h2.7V-.8h-2.7v2.7zm0 5.9h2.7V5.1h-2.7v2.7zm0 5.8h2.7v-2.7h-2.7v2.7zm0 5.8h2.7v-2.7h-2.7v2.7zm0 5.8h2.7v-2.7h-2.7v2.7zm0 5.8h2.7v-2.7h-2.7V31zm0 5.8h2.7v-2.7h-2.7v2.7zm0 5.9h2.7V40h-2.7v2.7zm0 5.8h2.7v-2.7h-2.7v2.7zm0 5.8h2.7v-2.7h-2.7v2.7zm0 5.8h2.7v-2.7h-2.7v2.7zm0 5.8h2.7v-2.7h-2.7v2.7zm0 5.9h2.7v-2.7h-2.7v2.7zm0 5.8h2.7v-2.7h-2.7v2.7zm0 5.8h2.7v-2.7h-2.7v2.7zm0 5.8h2.7v-2.7h-2.7v2.7zm0 5.8h2.7v-2.7h-2.7V95zm0 5.8h2.7v-2.7h-2.7v2.7zm0 5.9h2.7V104h-2.7v2.7zm0 5.8h2.7v-2.7h-2.7v2.7zm0 5.8h2.7v-2.7h-2.7v2.7zm0 5.8h2.7v-2.7h-2.7v2.7zm0 5.8h2.7v-2.7h-2.7v2.7zm0 5.8h2.7V133h-2.7v2.7zm0 5.9h2.7v-2.7h-2.7v2.7zm0 5.8h2.7v-2.7h-2.7v2.7zm0 5.8h2.7v-2.7h-2.7v2.7zm0 5.8h2.7v-2.7h-2.7v2.7zm0 5.8h2.7v-2.7h-2.7v2.7zm0 5.9h2.7V168h-2.7v2.7zm0 5.8h2.7v-2.7h-2.7v2.7zm0 5.8h2.7v-2.7h-2.7v2.7zm0 5.8h2.7v-2.7h-2.7v2.7zm0 5.8h2.7v-2.7h-2.7v2.7zm0 5.8h2.7V197h-2.7v2.7zm0 5.9h2.7v-2.7h-2.7v2.7zm0 5.8h2.7v-2.7h-2.7v2.7zm0 5.8h2.7v-2.7h-2.7v2.7zm0 5.8h2.7v-2.7h-2.7v2.7zm0 5.8h2.7v-2.7h-2.7v2.7zm0 5.9h2.7V232h-2.7v2.7zm0 5.8h2.7v-2.7h-2.7v2.7zm0 5.8h2.7v-2.7h-2.7v2.7zM354 1.9h2.7V-.8H354v2.7zm0 5.9h2.7V5.1H354v2.7zm0 5.8h2.7v-2.7H354v2.7zm0 5.8h2.7v-2.7H354v2.7zm0 5.8h2.7v-2.7H354v2.7zm0 5.8h2.7v-2.7H354V31zm0 5.8h2.7v-2.7H354v2.7zm0 5.9h2.7V40H354v2.7zm0 5.8h2.7v-2.7H354v2.7zm0 5.8h2.7v-2.7H354v2.7zm0 5.8h2.7v-2.7H354v2.7zm0 5.8h2.7v-2.7H354v2.7zm0 5.9h2.7v-2.7H354v2.7zm0 5.8h2.7v-2.7H354v2.7zm0 5.8h2.7v-2.7H354v2.7zm0 5.8h2.7v-2.7H354v2.7zm0 5.8h2.7v-2.7H354V95zm0 5.8h2.7v-2.7H354v2.7zm0 5.9h2.7V104H354v2.7zm0 5.8h2.7v-2.7H354v2.7zm0 5.8h2.7v-2.7H354v2.7zm0 5.8h2.7v-2.7H354v2.7zm0 5.8h2.7v-2.7H354v2.7zm0 5.8h2.7V133H354v2.7zm0 5.9h2.7v-2.7H354v2.7zm0 5.8h2.7v-2.7H354v2.7zm0 5.8h2.7v-2.7H354v2.7zm0 5.8h2.7v-2.7H354v2.7zm0 5.8h2.7v-2.7H354v2.7zm0 5.9h2.7V168H354v2.7zm0 5.8h2.7v-2.7H354v2.7zm0 5.8h2.7v-2.7H354v2.7zm0 5.8h2.7v-2.7H354v2.7zm0 5.8h2.7v-2.7H354v2.7zm0 5.8h2.7V197H354v2.7zm0 5.9h2.7v-2.7H354v2.7zm0 5.8h2.7v-2.7H354v2.7zm0 5.8h2.7v-2.7H354v2.7zm0 5.8h2.7v-2.7H354v2.7zm0 5.8h2.7v-2.7H354v2.7zm0 5.9h2.7V232H354v2.7zm0 5.8h2.7v-2.7H354v2.7zm0 5.8h2.7v-2.7H354v2.7zM348.2 1.9h2.7V-.8h-2.7v2.7zm0 5.9h2.7V5.1h-2.7v2.7zm0 5.8h2.7v-2.7h-2.7v2.7zm0 5.8h2.7v-2.7h-2.7v2.7zm0 5.8h2.7v-2.7h-2.7v2.7zm0 5.8h2.7v-2.7h-2.7V31zm0 5.8h2.7v-2.7h-2.7v2.7zm0 5.9h2.7V40h-2.7v2.7zm0 5.8h2.7v-2.7h-2.7v2.7zm0 5.8h2.7v-2.7h-2.7v2.7zm0 5.8h2.7v-2.7h-2.7v2.7zm0 5.8h2.7v-2.7h-2.7v2.7zm0 5.9h2.7v-2.7h-2.7v2.7zm0 5.8h2.7v-2.7h-2.7v2.7zm0 5.8h2.7v-2.7h-2.7v2.7zm0 5.8h2.7v-2.7h-2.7v2.7zm0 5.8h2.7v-2.7h-2.7V95zm0 5.8h2.7v-2.7h-2.7v2.7zm0 5.9h2.7V104h-2.7v2.7zm0 5.8h2.7v-2.7h-2.7v2.7zm0 5.8h2.7v-2.7h-2.7v2.7zm0 5.8h2.7v-2.7h-2.7v2.7zm0 5.8h2.7v-2.7h-2.7v2.7zm0 5.8h2.7V133h-2.7v2.7zm0 5.9h2.7v-2.7h-2.7v2.7zm0 5.8h2.7v-2.7h-2.7v2.7zm0 5.8h2.7v-2.7h-2.7v2.7zm0 5.8h2.7v-2.7h-2.7v2.7zm0 5.8h2.7v-2.7h-2.7v2.7zm0 5.9h2.7V168h-2.7v2.7zm0 5.8h2.7v-2.7h-2.7v2.7zm0 5.8h2.7v-2.7h-2.7v2.7zm0 5.8h2.7v-2.7h-2.7v2.7zm0 5.8h2.7v-2.7h-2.7v2.7zm0 5.8h2.7V197h-2.7v2.7zm0 5.9h2.7v-2.7h-2.7v2.7zm0 5.8h2.7v-2.7h-2.7v2.7zm0 5.8h2.7v-2.7h-2.7v2.7zm0 5.8h2.7v-2.7h-2.7v2.7zm0 5.8h2.7v-2.7h-2.7v2.7zm0 5.9h2.7V232h-2.7v2.7zm0 5.8h2.7v-2.7h-2.7v2.7zm0 5.8h2.7v-2.7h-2.7v2.7zM342.4 1.9h2.7V-.8h-2.7v2.7zm0 5.9h2.7V5.1h-2.7v2.7zm0 5.8h2.7v-2.7h-2.7v2.7zm0 5.8h2.7v-2.7h-2.7v2.7zm0 5.8h2.7v-2.7h-2.7v2.7zm0 5.8h2.7v-2.7h-2.7V31zm0 5.8h2.7v-2.7h-2.7v2.7zm0 5.9h2.7V40h-2.7v2.7zm0 5.8h2.7v-2.7h-2.7v2.7zm0 5.8h2.7v-2.7h-2.7v2.7zm0 5.8h2.7v-2.7h-2.7v2.7zm0 5.8h2.7v-2.7h-2.7v2.7zm0 5.9h2.7v-2.7h-2.7v2.7zm0 5.8h2.7v-2.7h-2.7v2.7zm0 5.8h2.7v-2.7h-2.7v2.7zm0 5.8h2.7v-2.7h-2.7v2.7zm0 5.8h2.7v-2.7h-2.7V95zm0 5.8h2.7v-2.7h-2.7v2.7zm0 5.9h2.7V104h-2.7v2.7zm0 5.8h2.7v-2.7h-2.7v2.7zm0 5.8h2.7v-2.7h-2.7v2.7zm0 5.8h2.7v-2.7h-2.7v2.7zm0 5.8h2.7v-2.7h-2.7v2.7zm0 5.8h2.7V133h-2.7v2.7zm0 5.9h2.7v-2.7h-2.7v2.7zm0 5.8h2.7v-2.7h-2.7v2.7zm0 5.8h2.7v-2.7h-2.7v2.7zm0 5.8h2.7v-2.7h-2.7v2.7zm0 5.8h2.7v-2.7h-2.7v2.7zm0 5.9h2.7V168h-2.7v2.7zm0 5.8h2.7v-2.7h-2.7v2.7zm0 5.8h2.7v-2.7h-2.7v2.7zm0 5.8h2.7v-2.7h-2.7v2.7zm0 5.8h2.7v-2.7h-2.7v2.7zm0 5.8h2.7V197h-2.7v2.7zm0 5.9h2.7v-2.7h-2.7v2.7zm0 5.8h2.7v-2.7h-2.7v2.7zm0 5.8h2.7v-2.7h-2.7v2.7zm0 5.8h2.7v-2.7h-2.7v2.7zm0 5.8h2.7v-2.7h-2.7v2.7zm0 5.9h2.7V232h-2.7v2.7zm0 5.8h2.7v-2.7h-2.7v2.7zm0 5.8h2.7v-2.7h-2.7v2.7zM336.6 1.9h2.7V-.8h-2.7v2.7zm0 5.9h2.7V5.1h-2.7v2.7zm0 5.8h2.7v-2.7h-2.7v2.7zm0 5.8h2.7v-2.7h-2.7v2.7zm0 5.8h2.7v-2.7h-2.7v2.7zm0 5.8h2.7v-2.7h-2.7V31zm0 5.8h2.7v-2.7h-2.7v2.7zm0 5.9h2.7V40h-2.7v2.7zm0 5.8h2.7v-2.7h-2.7v2.7zm0 5.8h2.7v-2.7h-2.7v2.7zm0 5.8h2.7v-2.7h-2.7v2.7zm0 5.8h2.7v-2.7h-2.7v2.7zm0 5.9h2.7v-2.7h-2.7v2.7zm0 5.8h2.7v-2.7h-2.7v2.7zm0 5.8h2.7v-2.7h-2.7v2.7zm0 5.8h2.7v-2.7h-2.7v2.7zm0 5.8h2.7v-2.7h-2.7V95zm0 5.8h2.7v-2.7h-2.7v2.7zm0 5.9h2.7V104h-2.7v2.7zm0 5.8h2.7v-2.7h-2.7v2.7zm0 5.8h2.7v-2.7h-2.7v2.7zm0 5.8h2.7v-2.7h-2.7v2.7zm0 5.8h2.7v-2.7h-2.7v2.7zm0 5.8h2.7V133h-2.7v2.7zm0 5.9h2.7v-2.7h-2.7v2.7zm0 5.8h2.7v-2.7h-2.7v2.7zm0 5.8h2.7v-2.7h-2.7v2.7zm0 5.8h2.7v-2.7h-2.7v2.7zm0 5.8h2.7v-2.7h-2.7v2.7zm0 5.9h2.7V168h-2.7v2.7zm0 5.8h2.7v-2.7h-2.7v2.7zm0 5.8h2.7v-2.7h-2.7v2.7zm0 5.8h2.7v-2.7h-2.7v2.7zm0 5.8h2.7v-2.7h-2.7v2.7zm0 5.8h2.7V197h-2.7v2.7zm0 5.9h2.7v-2.7h-2.7v2.7zm0 5.8h2.7v-2.7h-2.7v2.7zm0 5.8h2.7v-2.7h-2.7v2.7zm0 5.8h2.7v-2.7h-2.7v2.7zm0 5.8h2.7v-2.7h-2.7v2.7zm0 5.9h2.7V232h-2.7v2.7zm0 5.8h2.7v-2.7h-2.7v2.7zm0 5.8h2.7v-2.7h-2.7v2.7zM330.7 1.9h2.7V-.8h-2.7v2.7zm0 5.9h2.7V5.1h-2.7v2.7zm0 5.8h2.7v-2.7h-2.7v2.7zm0 5.8h2.7v-2.7h-2.7v2.7zm0 5.8h2.7v-2.7h-2.7v2.7zm0 5.8h2.7v-2.7h-2.7V31zm0 5.8h2.7v-2.7h-2.7v2.7zm0 5.9h2.7V40h-2.7v2.7zm0 5.8h2.7v-2.7h-2.7v2.7zm0 5.8h2.7v-2.7h-2.7v2.7zm0 5.8h2.7v-2.7h-2.7v2.7zm0 5.8h2.7v-2.7h-2.7v2.7zm0 5.9h2.7v-2.7h-2.7v2.7zm0 5.8h2.7v-2.7h-2.7v2.7zm0 5.8h2.7v-2.7h-2.7v2.7zm0 5.8h2.7v-2.7h-2.7v2.7zm0 5.8h2.7v-2.7h-2.7V95zm0 5.8h2.7v-2.7h-2.7v2.7zm0 5.9h2.7V104h-2.7v2.7zm0 5.8h2.7v-2.7h-2.7v2.7zm0 5.8h2.7v-2.7h-2.7v2.7zm0 5.8h2.7v-2.7h-2.7v2.7zm0 5.8h2.7v-2.7h-2.7v2.7zm0 5.8h2.7V133h-2.7v2.7zm0 5.9h2.7v-2.7h-2.7v2.7zm0 5.8h2.7v-2.7h-2.7v2.7zm0 5.8h2.7v-2.7h-2.7v2.7zm0 5.8h2.7v-2.7h-2.7v2.7zm0 5.8h2.7v-2.7h-2.7v2.7zm0 5.9h2.7V168h-2.7v2.7zm0 5.8h2.7v-2.7h-2.7v2.7zm0 5.8h2.7v-2.7h-2.7v2.7zm0 5.8h2.7v-2.7h-2.7v2.7zm0 5.8h2.7v-2.7h-2.7v2.7zm0 5.8h2.7V197h-2.7v2.7zm0 5.9h2.7v-2.7h-2.7v2.7zm0 5.8h2.7v-2.7h-2.7v2.7zm0 5.8h2.7v-2.7h-2.7v2.7zm0 5.8h2.7v-2.7h-2.7v2.7zm0 5.8h2.7v-2.7h-2.7v2.7zm0 5.9h2.7V232h-2.7v2.7zm0 5.8h2.7v-2.7h-2.7v2.7zm0 5.8h2.7v-2.7h-2.7v2.7zM324.9 1.9h2.7V-.8h-2.7v2.7zm0 5.9h2.7V5.1h-2.7v2.7zm0 5.8h2.7v-2.7h-2.7v2.7zm0 5.8h2.7v-2.7h-2.7v2.7zm0 5.8h2.7v-2.7h-2.7v2.7zm0 5.8h2.7v-2.7h-2.7V31zm0 5.8h2.7v-2.7h-2.7v2.7zm0 5.9h2.7V40h-2.7v2.7zm0 5.8h2.7v-2.7h-2.7v2.7zm0 5.8h2.7v-2.7h-2.7v2.7zm0 5.8h2.7v-2.7h-2.7v2.7zm0 5.8h2.7v-2.7h-2.7v2.7zm0 5.9h2.7v-2.7h-2.7v2.7zm0 5.8h2.7v-2.7h-2.7v2.7zm0 5.8h2.7v-2.7h-2.7v2.7zm0 5.8h2.7v-2.7h-2.7v2.7zm0 5.8h2.7v-2.7h-2.7V95zm0 5.8h2.7v-2.7h-2.7v2.7zm0 5.9h2.7V104h-2.7v2.7zm0 5.8h2.7v-2.7h-2.7v2.7zm0 5.8h2.7v-2.7h-2.7v2.7zm0 5.8h2.7v-2.7h-2.7v2.7zm0 5.8h2.7v-2.7h-2.7v2.7zm0 5.8h2.7V133h-2.7v2.7zm0 5.9h2.7v-2.7h-2.7v2.7zm0 5.8h2.7v-2.7h-2.7v2.7zm0 5.8h2.7v-2.7h-2.7v2.7zm0 5.8h2.7v-2.7h-2.7v2.7zm0 5.8h2.7v-2.7h-2.7v2.7zm0 5.9h2.7V168h-2.7v2.7zm0 5.8h2.7v-2.7h-2.7v2.7zm0 5.8h2.7v-2.7h-2.7v2.7zm0 5.8h2.7v-2.7h-2.7v2.7zm0 5.8h2.7v-2.7h-2.7v2.7zm0 5.8h2.7V197h-2.7v2.7zm0 5.9h2.7v-2.7h-2.7v2.7zm0 5.8h2.7v-2.7h-2.7v2.7zm0 5.8h2.7v-2.7h-2.7v2.7zm0 5.8h2.7v-2.7h-2.7v2.7zm0 5.8h2.7v-2.7h-2.7v2.7zm0 5.9h2.7V232h-2.7v2.7zm0 5.8h2.7v-2.7h-2.7v2.7zm0 5.8h2.7v-2.7h-2.7v2.7zM319.1 1.9h2.7V-.8h-2.7v2.7zm0 5.9h2.7V5.1h-2.7v2.7zm0 5.8h2.7v-2.7h-2.7v2.7zm0 5.8h2.7v-2.7h-2.7v2.7zm0 5.8h2.7v-2.7h-2.7v2.7zm0 5.8h2.7v-2.7h-2.7V31zm0 5.8h2.7v-2.7h-2.7v2.7zm0 5.9h2.7V40h-2.7v2.7zm0 5.8h2.7v-2.7h-2.7v2.7zm0 5.8h2.7v-2.7h-2.7v2.7zm0 5.8h2.7v-2.7h-2.7v2.7zm0 5.8h2.7v-2.7h-2.7v2.7zm0 5.9h2.7v-2.7h-2.7v2.7zm0 5.8h2.7v-2.7h-2.7v2.7zm0 5.8h2.7v-2.7h-2.7v2.7zm0 5.8h2.7v-2.7h-2.7v2.7zm0 5.8h2.7v-2.7h-2.7V95zm0 5.8h2.7v-2.7h-2.7v2.7zm0 5.9h2.7V104h-2.7v2.7zm0 5.8h2.7v-2.7h-2.7v2.7zm0 5.8h2.7v-2.7h-2.7v2.7zm0 5.8h2.7v-2.7h-2.7v2.7zm0 5.8h2.7v-2.7h-2.7v2.7zm0 5.8h2.7V133h-2.7v2.7zm0 5.9h2.7v-2.7h-2.7v2.7zm0 5.8h2.7v-2.7h-2.7v2.7zm0 5.8h2.7v-2.7h-2.7v2.7zm0 5.8h2.7v-2.7h-2.7v2.7zm0 5.8h2.7v-2.7h-2.7v2.7zm0 5.9h2.7V168h-2.7v2.7zm0 5.8h2.7v-2.7h-2.7v2.7zm0 5.8h2.7v-2.7h-2.7v2.7zm0 5.8h2.7v-2.7h-2.7v2.7zm0 5.8h2.7v-2.7h-2.7v2.7zm0 5.8h2.7V197h-2.7v2.7zm0 5.9h2.7v-2.7h-2.7v2.7zm0 5.8h2.7v-2.7h-2.7v2.7zm0 5.8h2.7v-2.7h-2.7v2.7zm0 5.8h2.7v-2.7h-2.7v2.7zm0 5.8h2.7v-2.7h-2.7v2.7zm0 5.9h2.7V232h-2.7v2.7zm0 5.8h2.7v-2.7h-2.7v2.7zm0 5.8h2.7v-2.7h-2.7v2.7zM313.3 1.9h2.7V-.8h-2.7v2.7zm0 5.9h2.7V5.1h-2.7v2.7zm0 5.8h2.7v-2.7h-2.7v2.7zm0 5.8h2.7v-2.7h-2.7v2.7zm0 5.8h2.7v-2.7h-2.7v2.7zm0 5.8h2.7v-2.7h-2.7V31zm0 5.8h2.7v-2.7h-2.7v2.7zm0 5.9h2.7V40h-2.7v2.7zm0 5.8h2.7v-2.7h-2.7v2.7zm0 5.8h2.7v-2.7h-2.7v2.7zm0 5.8h2.7v-2.7h-2.7v2.7zm0 5.8h2.7v-2.7h-2.7v2.7zm0 5.9h2.7v-2.7h-2.7v2.7zm0 5.8h2.7v-2.7h-2.7v2.7zm0 5.8h2.7v-2.7h-2.7v2.7zm0 5.8h2.7v-2.7h-2.7v2.7zm0 5.8h2.7v-2.7h-2.7V95zm0 5.8h2.7v-2.7h-2.7v2.7zm0 5.9h2.7V104h-2.7v2.7zm0 5.8h2.7v-2.7h-2.7v2.7zm0 5.8h2.7v-2.7h-2.7v2.7zm0 5.8h2.7v-2.7h-2.7v2.7zm0 5.8h2.7v-2.7h-2.7v2.7zm0 5.8h2.7V133h-2.7v2.7zm0 5.9h2.7v-2.7h-2.7v2.7zm0 5.8h2.7v-2.7h-2.7v2.7zm0 5.8h2.7v-2.7h-2.7v2.7zm0 5.8h2.7v-2.7h-2.7v2.7zm0 5.8h2.7v-2.7h-2.7v2.7zm0 5.9h2.7V168h-2.7v2.7zm0 5.8h2.7v-2.7h-2.7v2.7zm0 5.8h2.7v-2.7h-2.7v2.7zm0 5.8h2.7v-2.7h-2.7v2.7zm0 5.8h2.7v-2.7h-2.7v2.7zm0 5.8h2.7V197h-2.7v2.7zm0 5.9h2.7v-2.7h-2.7v2.7zm0 5.8h2.7v-2.7h-2.7v2.7zm0 5.8h2.7v-2.7h-2.7v2.7zm0 5.8h2.7v-2.7h-2.7v2.7zm0 5.8h2.7v-2.7h-2.7v2.7zm0 5.9h2.7V232h-2.7v2.7zm0 5.8h2.7v-2.7h-2.7v2.7zm0 5.8h2.7v-2.7h-2.7v2.7zM307.4 1.9h2.7V-.8h-2.7v2.7zm0 5.9h2.7V5.1h-2.7v2.7zm0 5.8h2.7v-2.7h-2.7v2.7zm0 5.8h2.7v-2.7h-2.7v2.7zm0 5.8h2.7v-2.7h-2.7v2.7zm0 5.8h2.7v-2.7h-2.7V31zm0 5.8h2.7v-2.7h-2.7v2.7zm0 5.9h2.7V40h-2.7v2.7zm0 5.8h2.7v-2.7h-2.7v2.7zm0 5.8h2.7v-2.7h-2.7v2.7zm0 5.8h2.7v-2.7h-2.7v2.7zm0 5.8h2.7v-2.7h-2.7v2.7zm0 5.9h2.7v-2.7h-2.7v2.7zm0 5.8h2.7v-2.7h-2.7v2.7zm0 5.8h2.7v-2.7h-2.7v2.7zm0 5.8h2.7v-2.7h-2.7v2.7zm0 5.8h2.7v-2.7h-2.7V95zm0 5.8h2.7v-2.7h-2.7v2.7zm0 5.9h2.7V104h-2.7v2.7zm0 5.8h2.7v-2.7h-2.7v2.7zm0 5.8h2.7v-2.7h-2.7v2.7zm0 5.8h2.7v-2.7h-2.7v2.7zm0 5.8h2.7v-2.7h-2.7v2.7zm0 5.8h2.7V133h-2.7v2.7zm0 5.9h2.7v-2.7h-2.7v2.7zm0 5.8h2.7v-2.7h-2.7v2.7zm0 5.8h2.7v-2.7h-2.7v2.7zm0 5.8h2.7v-2.7h-2.7v2.7zm0 5.8h2.7v-2.7h-2.7v2.7zm0 5.9h2.7V168h-2.7v2.7zm0 5.8h2.7v-2.7h-2.7v2.7zm0 5.8h2.7v-2.7h-2.7v2.7zm0 5.8h2.7v-2.7h-2.7v2.7zm0 5.8h2.7v-2.7h-2.7v2.7zm0 5.8h2.7V197h-2.7v2.7zm0 5.9h2.7v-2.7h-2.7v2.7zm0 5.8h2.7v-2.7h-2.7v2.7zm0 5.8h2.7v-2.7h-2.7v2.7zm0 5.8h2.7v-2.7h-2.7v2.7zm0 5.8h2.7v-2.7h-2.7v2.7zm0 5.9h2.7V232h-2.7v2.7zm0 5.8h2.7v-2.7h-2.7v2.7zm0 5.8h2.7v-2.7h-2.7v2.7zM301.6 1.9h2.7V-.8h-2.7v2.7zm0 5.9h2.7V5.1h-2.7v2.7zm0 5.8h2.7v-2.7h-2.7v2.7zm0 5.8h2.7v-2.7h-2.7v2.7zm0 5.8h2.7v-2.7h-2.7v2.7zm0 5.8h2.7v-2.7h-2.7V31zm0 5.8h2.7v-2.7h-2.7v2.7zm0 5.9h2.7V40h-2.7v2.7zm0 5.8h2.7v-2.7h-2.7v2.7zm0 5.8h2.7v-2.7h-2.7v2.7zm0 5.8h2.7v-2.7h-2.7v2.7zm0 5.8h2.7v-2.7h-2.7v2.7zm0 5.9h2.7v-2.7h-2.7v2.7zm0 5.8h2.7v-2.7h-2.7v2.7zm0 5.8h2.7v-2.7h-2.7v2.7zm0 5.8h2.7v-2.7h-2.7v2.7zm0 5.8h2.7v-2.7h-2.7V95zm0 5.8h2.7v-2.7h-2.7v2.7zm0 5.9h2.7V104h-2.7v2.7zm0 5.8h2.7v-2.7h-2.7v2.7zm0 5.8h2.7v-2.7h-2.7v2.7zm0 5.8h2.7v-2.7h-2.7v2.7zm0 5.8h2.7v-2.7h-2.7v2.7zm0 5.8h2.7V133h-2.7v2.7zm0 5.9h2.7v-2.7h-2.7v2.7zm0 5.8h2.7v-2.7h-2.7v2.7zm0 5.8h2.7v-2.7h-2.7v2.7zm0 5.8h2.7v-2.7h-2.7v2.7zm0 5.8h2.7v-2.7h-2.7v2.7zm0 5.9h2.7V168h-2.7v2.7zm0 5.8h2.7v-2.7h-2.7v2.7zm0 5.8h2.7v-2.7h-2.7v2.7zm0 5.8h2.7v-2.7h-2.7v2.7zm0 5.8h2.7v-2.7h-2.7v2.7zm0 5.8h2.7V197h-2.7v2.7zm0 5.9h2.7v-2.7h-2.7v2.7zm0 5.8h2.7v-2.7h-2.7v2.7zm0 5.8h2.7v-2.7h-2.7v2.7zm0 5.8h2.7v-2.7h-2.7v2.7zm0 5.8h2.7v-2.7h-2.7v2.7zm0 5.9h2.7V232h-2.7v2.7zm0 5.8h2.7v-2.7h-2.7v2.7zm0 5.8h2.7v-2.7h-2.7v2.7zM295.8 1.9h2.7V-.8h-2.7v2.7zm0 5.9h2.7V5.1h-2.7v2.7zm0 5.8h2.7v-2.7h-2.7v2.7zm0 5.8h2.7v-2.7h-2.7v2.7zm0 5.8h2.7v-2.7h-2.7v2.7zm0 5.8h2.7v-2.7h-2.7V31zm0 5.8h2.7v-2.7h-2.7v2.7zm0 5.9h2.7V40h-2.7v2.7zm0 5.8h2.7v-2.7h-2.7v2.7zm0 5.8h2.7v-2.7h-2.7v2.7zm0 5.8h2.7v-2.7h-2.7v2.7zm0 5.8h2.7v-2.7h-2.7v2.7zm0 5.9h2.7v-2.7h-2.7v2.7zm0 5.8h2.7v-2.7h-2.7v2.7zm0 5.8h2.7v-2.7h-2.7v2.7zm0 5.8h2.7v-2.7h-2.7v2.7zm0 5.8h2.7v-2.7h-2.7V95zm0 5.8h2.7v-2.7h-2.7v2.7zm0 5.9h2.7V104h-2.7v2.7zm0 5.8h2.7v-2.7h-2.7v2.7zm0 5.8h2.7v-2.7h-2.7v2.7zm0 5.8h2.7v-2.7h-2.7v2.7zm0 5.8h2.7v-2.7h-2.7v2.7zm0 5.8h2.7V133h-2.7v2.7zm0 5.9h2.7v-2.7h-2.7v2.7zm0 5.8h2.7v-2.7h-2.7v2.7zm0 5.8h2.7v-2.7h-2.7v2.7zm0 5.8h2.7v-2.7h-2.7v2.7zm0 5.8h2.7v-2.7h-2.7v2.7zm0 5.9h2.7V168h-2.7v2.7zm0 5.8h2.7v-2.7h-2.7v2.7zm0 5.8h2.7v-2.7h-2.7v2.7zm0 5.8h2.7v-2.7h-2.7v2.7zm0 5.8h2.7v-2.7h-2.7v2.7zm0 5.8h2.7V197h-2.7v2.7zm0 5.9h2.7v-2.7h-2.7v2.7zm0 5.8h2.7v-2.7h-2.7v2.7zm0 5.8h2.7v-2.7h-2.7v2.7zm0 5.8h2.7v-2.7h-2.7v2.7zm0 5.8h2.7v-2.7h-2.7v2.7zm0 5.9h2.7V232h-2.7v2.7zm0 5.8h2.7v-2.7h-2.7v2.7zm0 5.8h2.7v-2.7h-2.7v2.7zM290 1.9h2.7V-.8H290v2.7zm0 5.9h2.7V5.1H290v2.7zm0 5.8h2.7v-2.7H290v2.7zm0 5.8h2.7v-2.7H290v2.7zm0 5.8h2.7v-2.7H290v2.7zm0 5.8h2.7v-2.7H290V31zm0 5.8h2.7v-2.7H290v2.7zm0 5.9h2.7V40H290v2.7zm0 5.8h2.7v-2.7H290v2.7zm0 5.8h2.7v-2.7H290v2.7zm0 5.8h2.7v-2.7H290v2.7zm0 5.8h2.7v-2.7H290v2.7zm0 5.9h2.7v-2.7H290v2.7zm0 5.8h2.7v-2.7H290v2.7zm0 5.8h2.7v-2.7H290v2.7zm0 5.8h2.7v-2.7H290v2.7zm0 5.8h2.7v-2.7H290V95zm0 5.8h2.7v-2.7H290v2.7zm0 5.9h2.7V104H290v2.7zm0 5.8h2.7v-2.7H290v2.7zm0 5.8h2.7v-2.7H290v2.7zm0 5.8h2.7v-2.7H290v2.7zm0 5.8h2.7v-2.7H290v2.7zm0 5.8h2.7V133H290v2.7zm0 5.9h2.7v-2.7H290v2.7zm0 5.8h2.7v-2.7H290v2.7zm0 5.8h2.7v-2.7H290v2.7zm0 5.8h2.7v-2.7H290v2.7zm0 5.8h2.7v-2.7H290v2.7zm0 5.9h2.7V168H290v2.7zm0 5.8h2.7v-2.7H290v2.7zm0 5.8h2.7v-2.7H290v2.7zm0 5.8h2.7v-2.7H290v2.7zm0 5.8h2.7v-2.7H290v2.7zm0 5.8h2.7V197H290v2.7zm0 5.9h2.7v-2.7H290v2.7zm0 5.8h2.7v-2.7H290v2.7zm0 5.8h2.7v-2.7H290v2.7zm0 5.8h2.7v-2.7H290v2.7zm0 5.8h2.7v-2.7H290v2.7zm0 5.9h2.7V232H290v2.7zm0 5.8h2.7v-2.7H290v2.7zm0 5.8h2.7v-2.7H290v2.7zM284.1 1.9h2.7V-.8h-2.7v2.7zm0 5.9h2.7V5.1h-2.7v2.7zm0 5.8h2.7v-2.7h-2.7v2.7zm0 5.8h2.7v-2.7h-2.7v2.7zm0 5.8h2.7v-2.7h-2.7v2.7zm0 5.8h2.7v-2.7h-2.7V31zm0 5.8h2.7v-2.7h-2.7v2.7zm0 5.9h2.7V40h-2.7v2.7zm0 5.8h2.7v-2.7h-2.7v2.7zm0 5.8h2.7v-2.7h-2.7v2.7zm0 5.8h2.7v-2.7h-2.7v2.7zm0 5.8h2.7v-2.7h-2.7v2.7zm0 5.9h2.7v-2.7h-2.7v2.7zm0 5.8h2.7v-2.7h-2.7v2.7zm0 5.8h2.7v-2.7h-2.7v2.7zm0 5.8h2.7v-2.7h-2.7v2.7zm0 5.8h2.7v-2.7h-2.7V95zm0 5.8h2.7v-2.7h-2.7v2.7zm0 5.9h2.7V104h-2.7v2.7zm0 5.8h2.7v-2.7h-2.7v2.7zm0 5.8h2.7v-2.7h-2.7v2.7zm0 5.8h2.7v-2.7h-2.7v2.7zm0 5.8h2.7v-2.7h-2.7v2.7zm0 5.8h2.7V133h-2.7v2.7zm0 5.9h2.7v-2.7h-2.7v2.7zm0 5.8h2.7v-2.7h-2.7v2.7zm0 5.8h2.7v-2.7h-2.7v2.7zm0 5.8h2.7v-2.7h-2.7v2.7zm0 5.8h2.7v-2.7h-2.7v2.7zm0 5.9h2.7V168h-2.7v2.7zm0 5.8h2.7v-2.7h-2.7v2.7zm0 5.8h2.7v-2.7h-2.7v2.7zm0 5.8h2.7v-2.7h-2.7v2.7zm0 5.8h2.7v-2.7h-2.7v2.7zm0 5.8h2.7V197h-2.7v2.7zm0 5.9h2.7v-2.7h-2.7v2.7zm0 5.8h2.7v-2.7h-2.7v2.7zm0 5.8h2.7v-2.7h-2.7v2.7zm0 5.8h2.7v-2.7h-2.7v2.7zm0 5.8h2.7v-2.7h-2.7v2.7zm0 5.9h2.7V232h-2.7v2.7zm0 5.8h2.7v-2.7h-2.7v2.7zm0 5.8h2.7v-2.7h-2.7v2.7zM278.3 1.9h2.7V-.8h-2.7v2.7zm0 5.9h2.7V5.1h-2.7v2.7zm0 5.8h2.7v-2.7h-2.7v2.7zm0 5.8h2.7v-2.7h-2.7v2.7zm0 5.8h2.7v-2.7h-2.7v2.7zm0 5.8h2.7v-2.7h-2.7V31zm0 5.8h2.7v-2.7h-2.7v2.7zm0 5.9h2.7V40h-2.7v2.7zm0 5.8h2.7v-2.7h-2.7v2.7zm0 5.8h2.7v-2.7h-2.7v2.7zm0 5.8h2.7v-2.7h-2.7v2.7zm0 5.8h2.7v-2.7h-2.7v2.7zm0 5.9h2.7v-2.7h-2.7v2.7zm0 5.8h2.7v-2.7h-2.7v2.7zm0 5.8h2.7v-2.7h-2.7v2.7zm0 5.8h2.7v-2.7h-2.7v2.7zm0 5.8h2.7v-2.7h-2.7V95zm0 5.8h2.7v-2.7h-2.7v2.7zm0 5.9h2.7V104h-2.7v2.7zm0 5.8h2.7v-2.7h-2.7v2.7zm0 5.8h2.7v-2.7h-2.7v2.7zm0 5.8h2.7v-2.7h-2.7v2.7zm0 5.8h2.7v-2.7h-2.7v2.7zm0 5.8h2.7V133h-2.7v2.7zm0 5.9h2.7v-2.7h-2.7v2.7zm0 5.8h2.7v-2.7h-2.7v2.7zm0 5.8h2.7v-2.7h-2.7v2.7zm0 5.8h2.7v-2.7h-2.7v2.7zm0 5.8h2.7v-2.7h-2.7v2.7zm0 5.9h2.7V168h-2.7v2.7zm0 5.8h2.7v-2.7h-2.7v2.7zm0 5.8h2.7v-2.7h-2.7v2.7zm0 5.8h2.7v-2.7h-2.7v2.7zm0 5.8h2.7v-2.7h-2.7v2.7zm0 5.8h2.7V197h-2.7v2.7zm0 5.9h2.7v-2.7h-2.7v2.7zm0 5.8h2.7v-2.7h-2.7v2.7zm0 5.8h2.7v-2.7h-2.7v2.7zm0 5.8h2.7v-2.7h-2.7v2.7zm0 5.8h2.7v-2.7h-2.7v2.7zm0 5.9h2.7V232h-2.7v2.7zm0 5.8h2.7v-2.7h-2.7v2.7zm0 5.8h2.7v-2.7h-2.7v2.7zM272.5 1.9h2.7V-.8h-2.7v2.7zm0 5.9h2.7V5.1h-2.7v2.7zm0 5.8h2.7v-2.7h-2.7v2.7zm0 5.8h2.7v-2.7h-2.7v2.7zm0 5.8h2.7v-2.7h-2.7v2.7zm0 5.8h2.7v-2.7h-2.7V31zm0 5.8h2.7v-2.7h-2.7v2.7zm0 5.9h2.7V40h-2.7v2.7zm0 5.8h2.7v-2.7h-2.7v2.7zm0 5.8h2.7v-2.7h-2.7v2.7zm0 5.8h2.7v-2.7h-2.7v2.7zm0 5.8h2.7v-2.7h-2.7v2.7zm0 5.9h2.7v-2.7h-2.7v2.7zm0 5.8h2.7v-2.7h-2.7v2.7zm0 5.8h2.7v-2.7h-2.7v2.7zm0 5.8h2.7v-2.7h-2.7v2.7zm0 5.8h2.7v-2.7h-2.7V95zm0 5.8h2.7v-2.7h-2.7v2.7zm0 5.9h2.7V104h-2.7v2.7zm0 5.8h2.7v-2.7h-2.7v2.7zm0 5.8h2.7v-2.7h-2.7v2.7zm0 5.8h2.7v-2.7h-2.7v2.7zm0 5.8h2.7v-2.7h-2.7v2.7zm0 5.8h2.7V133h-2.7v2.7zm0 5.9h2.7v-2.7h-2.7v2.7zm0 5.8h2.7v-2.7h-2.7v2.7zm0 5.8h2.7v-2.7h-2.7v2.7zm0 5.8h2.7v-2.7h-2.7v2.7zm0 5.8h2.7v-2.7h-2.7v2.7zm0 5.9h2.7V168h-2.7v2.7zm0 5.8h2.7v-2.7h-2.7v2.7zm0 5.8h2.7v-2.7h-2.7v2.7zm0 5.8h2.7v-2.7h-2.7v2.7zm0 5.8h2.7v-2.7h-2.7v2.7zm0 5.8h2.7V197h-2.7v2.7zm0 5.9h2.7v-2.7h-2.7v2.7zm0 5.8h2.7v-2.7h-2.7v2.7zm0 5.8h2.7v-2.7h-2.7v2.7zm0 5.8h2.7v-2.7h-2.7v2.7zm0 5.8h2.7v-2.7h-2.7v2.7zm0 5.9h2.7V232h-2.7v2.7zm0 5.8h2.7v-2.7h-2.7v2.7zm0 5.8h2.7v-2.7h-2.7v2.7zM266.7 1.9h2.7V-.8h-2.7v2.7zm0 5.9h2.7V5.1h-2.7v2.7zm0 5.8h2.7v-2.7h-2.7v2.7zm0 5.8h2.7v-2.7h-2.7v2.7zm0 5.8h2.7v-2.7h-2.7v2.7zm0 5.8h2.7v-2.7h-2.7V31zm0 5.8h2.7v-2.7h-2.7v2.7zm0 5.9h2.7V40h-2.7v2.7zm0 5.8h2.7v-2.7h-2.7v2.7zm0 5.8h2.7v-2.7h-2.7v2.7zm0 5.8h2.7v-2.7h-2.7v2.7zm0 5.8h2.7v-2.7h-2.7v2.7zm0 5.9h2.7v-2.7h-2.7v2.7zm0 5.8h2.7v-2.7h-2.7v2.7zm0 5.8h2.7v-2.7h-2.7v2.7zm0 5.8h2.7v-2.7h-2.7v2.7zm0 5.8h2.7v-2.7h-2.7V95zm0 5.8h2.7v-2.7h-2.7v2.7zm0 5.9h2.7V104h-2.7v2.7zm0 5.8h2.7v-2.7h-2.7v2.7zm0 5.8h2.7v-2.7h-2.7v2.7zm0 5.8h2.7v-2.7h-2.7v2.7zm0 5.8h2.7v-2.7h-2.7v2.7zm0 5.8h2.7V133h-2.7v2.7zm0 5.9h2.7v-2.7h-2.7v2.7zm0 5.8h2.7v-2.7h-2.7v2.7zm0 5.8h2.7v-2.7h-2.7v2.7zm0 5.8h2.7v-2.7h-2.7v2.7zm0 5.8h2.7v-2.7h-2.7v2.7zm0 5.9h2.7V168h-2.7v2.7zm0 5.8h2.7v-2.7h-2.7v2.7zm0 5.8h2.7v-2.7h-2.7v2.7zm0 5.8h2.7v-2.7h-2.7v2.7zm0 5.8h2.7v-2.7h-2.7v2.7zm0 5.8h2.7V197h-2.7v2.7zm0 5.9h2.7v-2.7h-2.7v2.7zm0 5.8h2.7v-2.7h-2.7v2.7zm0 5.8h2.7v-2.7h-2.7v2.7zm0 5.8h2.7v-2.7h-2.7v2.7zm0 5.8h2.7v-2.7h-2.7v2.7zm0 5.9h2.7V232h-2.7v2.7zm0 5.8h2.7v-2.7h-2.7v2.7zm0 5.8h2.7v-2.7h-2.7v2.7zM260.8 1.9h2.7V-.8h-2.7v2.7zm0 5.9h2.7V5.1h-2.7v2.7zm0 5.8h2.7v-2.7h-2.7v2.7zm0 5.8h2.7v-2.7h-2.7v2.7zm0 5.8h2.7v-2.7h-2.7v2.7zm0 5.8h2.7v-2.7h-2.7V31zm0 5.8h2.7v-2.7h-2.7v2.7zm0 5.9h2.7V40h-2.7v2.7zm0 5.8h2.7v-2.7h-2.7v2.7zm0 5.8h2.7v-2.7h-2.7v2.7zm0 5.8h2.7v-2.7h-2.7v2.7zm0 5.8h2.7v-2.7h-2.7v2.7zm0 5.9h2.7v-2.7h-2.7v2.7zm0 5.8h2.7v-2.7h-2.7v2.7zm0 5.8h2.7v-2.7h-2.7v2.7zm0 5.8h2.7v-2.7h-2.7v2.7zm0 5.8h2.7v-2.7h-2.7V95zm0 5.8h2.7v-2.7h-2.7v2.7zm0 5.9h2.7V104h-2.7v2.7zm0 5.8h2.7v-2.7h-2.7v2.7zm0 5.8h2.7v-2.7h-2.7v2.7zm0 5.8h2.7v-2.7h-2.7v2.7zm0 5.8h2.7v-2.7h-2.7v2.7zm0 5.8h2.7V133h-2.7v2.7zm0 5.9h2.7v-2.7h-2.7v2.7zm0 5.8h2.7v-2.7h-2.7v2.7zm0 5.8h2.7v-2.7h-2.7v2.7zm0 5.8h2.7v-2.7h-2.7v2.7zm0 5.8h2.7v-2.7h-2.7v2.7zm0 5.9h2.7V168h-2.7v2.7zm0 5.8h2.7v-2.7h-2.7v2.7zm0 5.8h2.7v-2.7h-2.7v2.7zm0 5.8h2.7v-2.7h-2.7v2.7zm0 5.8h2.7v-2.7h-2.7v2.7zm0 5.8h2.7V197h-2.7v2.7zm0 5.9h2.7v-2.7h-2.7v2.7zm0 5.8h2.7v-2.7h-2.7v2.7zm0 5.8h2.7v-2.7h-2.7v2.7zm0 5.8h2.7v-2.7h-2.7v2.7zm0 5.8h2.7v-2.7h-2.7v2.7zm0 5.9h2.7V232h-2.7v2.7zm0 5.8h2.7v-2.7h-2.7v2.7zm0 5.8h2.7v-2.7h-2.7v2.7zM255 1.9h2.7V-.8H255v2.7zm0 5.9h2.7V5.1H255v2.7zm0 5.8h2.7v-2.7H255v2.7zm0 5.8h2.7v-2.7H255v2.7zm0 5.8h2.7v-2.7H255v2.7zm0 5.8h2.7v-2.7H255V31zm0 5.8h2.7v-2.7H255v2.7zm0 5.9h2.7V40H255v2.7zm0 5.8h2.7v-2.7H255v2.7zm0 5.8h2.7v-2.7H255v2.7zm0 5.8h2.7v-2.7H255v2.7zm0 5.8h2.7v-2.7H255v2.7zm0 5.9h2.7v-2.7H255v2.7zm0 5.8h2.7v-2.7H255v2.7zm0 5.8h2.7v-2.7H255v2.7zm0 5.8h2.7v-2.7H255v2.7zm0 5.8h2.7v-2.7H255V95zm0 5.8h2.7v-2.7H255v2.7zm0 5.9h2.7V104H255v2.7zm0 5.8h2.7v-2.7H255v2.7zm0 5.8h2.7v-2.7H255v2.7zm0 5.8h2.7v-2.7H255v2.7zm0 5.8h2.7v-2.7H255v2.7zm0 5.8h2.7V133H255v2.7zm0 5.9h2.7v-2.7H255v2.7zm0 5.8h2.7v-2.7H255v2.7zm0 5.8h2.7v-2.7H255v2.7zm0 5.8h2.7v-2.7H255v2.7zm0 5.8h2.7v-2.7H255v2.7zm0 5.9h2.7V168H255v2.7zm0 5.8h2.7v-2.7H255v2.7zm0 5.8h2.7v-2.7H255v2.7zm0 5.8h2.7v-2.7H255v2.7zm0 5.8h2.7v-2.7H255v2.7zm0 5.8h2.7V197H255v2.7zm0 5.9h2.7v-2.7H255v2.7zm0 5.8h2.7v-2.7H255v2.7zm0 5.8h2.7v-2.7H255v2.7zm0 5.8h2.7v-2.7H255v2.7zm0 5.8h2.7v-2.7H255v2.7zm0 5.9h2.7V232H255v2.7zm0 5.8h2.7v-2.7H255v2.7zm0 5.8h2.7v-2.7H255v2.7zM249.2 1.9h2.7V-.8h-2.7v2.7zm0 5.9h2.7V5.1h-2.7v2.7zm0 5.8h2.7v-2.7h-2.7v2.7zm0 5.8h2.7v-2.7h-2.7v2.7zm0 5.8h2.7v-2.7h-2.7v2.7zm0 5.8h2.7v-2.7h-2.7V31zm0 5.8h2.7v-2.7h-2.7v2.7zm0 5.9h2.7V40h-2.7v2.7zm0 5.8h2.7v-2.7h-2.7v2.7zm0 5.8h2.7v-2.7h-2.7v2.7zm0 5.8h2.7v-2.7h-2.7v2.7zm0 5.8h2.7v-2.7h-2.7v2.7zm0 5.9h2.7v-2.7h-2.7v2.7zm0 5.8h2.7v-2.7h-2.7v2.7zm0 5.8h2.7v-2.7h-2.7v2.7zm0 5.8h2.7v-2.7h-2.7v2.7zm0 5.8h2.7v-2.7h-2.7V95zm0 5.8h2.7v-2.7h-2.7v2.7zm0 5.9h2.7V104h-2.7v2.7zm0 5.8h2.7v-2.7h-2.7v2.7zm0 5.8h2.7v-2.7h-2.7v2.7zm0 5.8h2.7v-2.7h-2.7v2.7zm0 5.8h2.7v-2.7h-2.7v2.7zm0 5.8h2.7V133h-2.7v2.7zm0 5.9h2.7v-2.7h-2.7v2.7zm0 5.8h2.7v-2.7h-2.7v2.7zm0 5.8h2.7v-2.7h-2.7v2.7zm0 5.8h2.7v-2.7h-2.7v2.7zm0 5.8h2.7v-2.7h-2.7v2.7zm0 5.9h2.7V168h-2.7v2.7zm0 5.8h2.7v-2.7h-2.7v2.7zm0 5.8h2.7v-2.7h-2.7v2.7zm0 5.8h2.7v-2.7h-2.7v2.7zm0 5.8h2.7v-2.7h-2.7v2.7zm0 5.8h2.7V197h-2.7v2.7zm0 5.9h2.7v-2.7h-2.7v2.7zm0 5.8h2.7v-2.7h-2.7v2.7zm0 5.8h2.7v-2.7h-2.7v2.7zm0 5.8h2.7v-2.7h-2.7v2.7zm0 5.8h2.7v-2.7h-2.7v2.7zm0 5.9h2.7V232h-2.7v2.7zm0 5.8h2.7v-2.7h-2.7v2.7zm0 5.8h2.7v-2.7h-2.7v2.7z" opacity="0.102"/>
</svg>
